<svg width="415" height="518" viewBox="0 0 415 518" fill="none" xmlns="http://www.w3.org/2000/svg">
<rect width="415" height="518" fill="#FFD630"/>
<path d="M328.5 129L315.985 103.983L288 99.9714L308.25 80.4958L303.468 53L328.5 65.9815L353.529 53L348.75 80.4958L369 99.9714L341.015 103.983L328.5 129Z" fill="#FCE679" fill-opacity="0.57"/>
<path d="M36.5 74L28.3114 57.5416L10 54.9022L23.25 42.0894L20.1207 24L36.5 32.5405L52.8771 24L49.75 42.0894L63 54.9022L44.6886 57.5416L36.5 74Z" fill="#FCE679" fill-opacity="0.57"/>
<path d="M93.5 351L85.3114 334.542L67 331.902L80.25 319.089L77.1207 301L93.5 309.54L109.877 301L106.75 319.089L120 331.902L101.689 334.542L93.5 351Z" fill="#FCE679" fill-opacity="0.57"/>
<path d="M351.5 320L343.311 303.542L325 300.902L338.25 288.089L335.121 270L351.5 278.54L367.877 270L364.75 288.089L378 300.902L359.689 303.542L351.5 320Z" fill="#FCE679" fill-opacity="0.57"/>
<path d="M372.5 450L364.311 433.542L346 430.902L359.25 418.089L356.121 400L372.5 408.54L388.877 400L385.75 418.089L399 430.902L380.689 433.542L372.5 450Z" fill="#FCE679" fill-opacity="0.57"/>
<path d="M48 444L36.2579 420.3L10 416.499L29 398.049L24.5127 372L48 384.298L71.4842 372L67 398.049L86 416.499L59.7421 420.3L48 444Z" fill="#FCE679" fill-opacity="0.57"/>
</svg>
