<svg width="96" height="97" viewBox="0 0 96 97" fill="none" xmlns="http://www.w3.org/2000/svg">
<g clip-path="url(#clip0)">
<path d="M36.4578 73.7253C16.1804 73.6555 -0.105329 57.0858 -2.62642e-05 36.6282C0.105277 16.3601 16.5325 -0.0598862 36.6454 -1.99227e-05C56.824 0.0598464 73.0308 16.7193 72.9419 37.31C72.8564 57.3219 56.3567 73.7918 36.4578 73.7253ZM36.6223 9.61184C21.4883 9.59521 9.4509 21.7381 9.51343 37.0672C9.57595 51.6147 21.3041 64.1467 36.5104 64.1401C51.3088 64.1334 63.4186 51.9639 63.4482 37.0306C63.4778 21.8911 51.4766 9.62847 36.6223 9.61184Z" fill="white"/>
<path d="M58.2753 70.4792C62.8757 67.4527 66.7192 63.6478 69.8553 58.649C70.7306 59.6102 71.4644 60.4716 72.2542 61.2731C79.3358 68.4438 86.4339 75.5945 93.5122 82.7718C96.2139 85.5123 96.7404 89.101 94.9602 92.1708C92.8245 95.8559 89.1257 97.7384 85.6079 96.724C84.4397 96.388 83.209 95.7661 82.3534 94.9147C74.3965 86.9857 66.5185 78.9769 58.6208 70.9881C58.5122 70.8783 58.4398 70.7287 58.2753 70.4792Z" fill="white"/>
<path d="M56.9392 36.136C56.9392 36.1193 57.0708 36.5517 56.9129 36.7646C56.5114 37.31 55.9849 37.7623 55.5045 38.2479C55.0635 37.779 54.3758 37.3765 54.2343 36.8277C53.9348 35.6637 54.0138 34.4065 53.767 33.2225C52.1117 25.2902 45.6488 19.6761 37.4648 19.0142C37.1916 18.9909 36.8461 19.094 36.6586 18.9577C36.1057 18.5586 35.283 18.1362 35.181 17.6007C34.9902 16.6062 35.7865 16.1872 36.7474 16.1905C41.1043 16.2105 45.0203 17.5741 48.5347 20.1417C53.5268 23.7902 56.7089 29.7369 56.9392 36.136Z" fill="white"/>
</g>
<defs>
<clipPath id="clip0">
<rect width="96" height="97" fill="white"/>
</clipPath>
</defs>
</svg>
