<svg width="112" height="143" viewBox="0 0 112 143" fill="none" xmlns="http://www.w3.org/2000/svg">
<path d="M6.53479 143C6.53479 123.623 6.53479 104.312 6.53479 84.8062C41.629 84.8062 76.7154 84.8062 112 84.8062C112 104.16 112 123.506 112 143C76.832 143 41.7378 143 6.53479 143ZM45.5918 129.939C52.6083 133.561 71.9756 123.257 73.4325 115.718C74.6369 109.491 53.6223 96.3601 47.9773 97.1817C39.4184 98.4317 39.5815 126.835 45.5918 129.939Z" fill="white"/>
<path d="M14.9888 61.605C12.1837 63.2133 9.73611 64.6152 7.28849 66.0171C7.30403 66.1533 7.31957 66.2896 7.339 66.4298C11.6787 66.4298 16.0145 66.4298 20.3541 66.4298C24.686 66.4298 29.0179 66.4298 33.6606 66.4298C33.2566 67.0023 33.0235 67.4189 32.7127 67.7538C29.2471 71.5195 25.7855 75.2851 22.2773 79.0078C21.8343 79.4751 21.1273 79.9619 20.5328 79.9697C15.9484 80.0476 11.364 80.0125 6.42988 80.0125C6.42988 77.9409 6.24728 75.951 6.46485 74C7.04761 68.7429 5.851 64.0388 2.72348 59.7709C1.77552 58.478 1.11893 56.9749 0.00390625 54.9928C5.20607 57.2942 9.89929 59.362 14.9888 61.605Z" fill="white"/>
<path d="M17.9337 41.3322C21.3837 39.354 24.5501 37.516 27.7475 35.7325C28.0855 35.5455 28.6605 35.5066 29.0102 35.6624C34.7873 38.2364 40.5489 40.8532 46.6447 43.6064C42.8994 45.7365 39.4417 47.7186 35.9567 49.65C35.6382 49.8292 35.0593 49.8058 34.7174 49.6384C29.2083 46.9436 23.7225 44.2061 17.9337 41.3322Z" fill="white"/>
<path d="M93.7982 16.7798C90.4959 18.6606 87.2091 20.5532 83.8951 22.3912C83.5688 22.5703 83.0054 22.5781 82.6558 22.4223C76.8747 19.8522 71.1131 17.2432 64.9863 14.4822C68.615 12.4067 71.9328 10.4869 75.2818 8.62937C75.5965 8.45413 76.1676 8.52812 76.5328 8.68778C82.1973 11.2151 87.8501 13.7735 93.4991 16.3319C93.5962 16.3748 93.6428 16.5344 93.7982 16.7798Z" fill="white"/>
<path d="M78.0985 25.7051C74.7379 27.621 71.5094 29.5058 68.2265 31.2893C67.7719 31.5346 66.9755 31.4801 66.4743 31.2581C60.8642 28.7776 55.2851 26.2386 49.4614 23.6101C49.846 23.2752 50.0946 22.9792 50.4055 22.8001C53.2571 21.1529 56.1049 19.4901 59.0032 17.9285C59.5277 17.6443 60.3941 17.5664 60.9224 17.7961C66.4238 20.2027 71.8901 22.6949 77.3604 25.1716C77.5818 25.2768 77.7644 25.4637 78.0985 25.7051Z" fill="white"/>
<path d="M62.4571 34.6071C58.8672 36.6554 55.6853 38.4934 52.4685 40.2808C52.0799 40.4989 51.4389 40.6118 51.0582 40.4405C45.2888 37.8859 39.5388 35.2769 33.3887 32.5043C37.0718 30.4014 40.3935 28.4894 43.7425 26.6241C44.0144 26.4723 44.5079 26.5073 44.8148 26.6436C50.5842 29.2254 56.338 31.8345 62.4571 34.6071Z" fill="white"/>
<path d="M30.1057 53.0146C26.9743 54.7981 23.9051 56.5777 20.7931 58.2795C20.3658 58.5131 19.647 58.5443 19.2002 58.3535C13.458 55.8651 7.74304 53.3145 1.63953 50.6158C5.2993 48.5286 8.67158 46.5815 12.0788 44.6968C12.3857 44.5293 12.9685 44.6695 13.3415 44.8447C18.7806 47.3837 24.2081 49.9538 29.6356 52.524C29.7988 52.5941 29.8998 52.7888 30.1057 53.0146Z" fill="white"/>
<path d="M52.3752 67.2749C48.055 71.3715 43.7425 75.4681 39.4067 79.5492C39.1503 79.7906 38.7346 79.9892 38.3927 79.9931C34.9932 80.0242 31.5938 80.0126 27.7048 80.0126C30.1912 77.201 32.3514 74.7399 34.5309 72.2944C36.2559 70.3629 37.6779 67.7188 39.8419 66.7414C42.002 65.764 44.9158 66.461 47.5033 66.4376C48.9136 66.4221 50.3239 66.4337 51.7381 66.4337C51.9479 66.718 52.1616 66.9984 52.3752 67.2749Z" fill="white"/>
<path d="M45.5063 79.2182C49.7605 75.1566 54.007 71.0794 58.2922 67.049C58.6652 66.6986 59.3063 66.4688 59.8269 66.461C63.1836 66.4104 66.5442 66.4338 70.239 66.4338C69.8116 67.0023 69.5746 67.4034 69.256 67.7266C65.5419 71.5156 61.8238 75.3046 58.0747 79.0585C57.6512 79.483 57.0335 79.958 56.4934 79.9736C53.024 80.0554 49.5508 80.0165 46.0813 80.0165C45.8832 79.7517 45.6967 79.4869 45.5063 79.2182Z" fill="white"/>
<path d="M106.856 67.2398C102.606 71.3131 98.3672 75.4019 94.0819 79.4401C93.7128 79.7906 93.0601 79.9892 92.5356 79.997C89.175 80.0476 85.8144 80.0203 82.1429 80.0203C82.5897 79.4479 82.85 79.0429 83.1764 78.708C86.8517 74.9619 90.5037 71.1924 94.249 67.5241C94.855 66.9322 95.8885 66.5116 96.7432 66.4805C99.9484 66.3598 103.161 66.4338 106.371 66.4338C106.53 66.7025 106.693 66.9711 106.856 67.2398Z" fill="white"/>
<path d="M88.6388 67.1347C85.3753 70.2422 81.9059 73.1667 78.9183 76.5195C76.5251 79.2104 74.0075 80.5577 70.3905 80.0749C68.3819 79.8062 66.3111 80.0281 63.8907 80.0281C64.4851 79.3194 64.8115 78.8794 65.1922 78.4939C68.817 74.7983 72.4302 71.095 76.1016 67.4501C76.595 66.9594 77.3837 66.5038 78.048 66.4883C81.4009 66.3909 84.7576 66.4454 88.1143 66.4454C88.2931 66.6713 88.464 66.901 88.6388 67.1347Z" fill="white"/>
<path d="M90.3561 0C92.7454 4.21344 95.0687 8.31006 97.7067 12.9674C91.9373 10.3194 86.673 7.90507 81.0357 5.31937C84.3109 3.45019 87.2519 1.77183 90.3561 0Z" fill="white"/>
<path d="M111.953 67.5864C111.953 71.9439 111.953 75.9159 111.953 79.9541C108.084 79.9541 104.339 79.9541 100.061 79.9541C104.109 75.7407 107.901 71.7959 111.953 67.5864Z" fill="white"/>
<path d="M47.7869 125.772C48.0005 117.75 48.2026 110.196 48.4163 102.19C55.2385 106.376 61.7422 110.367 68.4945 114.514C61.544 118.292 54.8306 121.944 47.7869 125.772Z" fill="white"/>
</svg>
