<svg width="115" height="115" viewBox="0 0 115 115" fill="none" xmlns="http://www.w3.org/2000/svg">
<g clip-path="url(#clip0)">
<path d="M108.653 110.191C102.498 108.687 96.8732 107.236 91.2055 106.005C90.0432 105.751 88.4888 105.967 87.4796 106.575C52.2536 127.826 7.2465 106.877 0.708284 66.1423C-4.39985 34.321 18.7924 3.85519 50.79 0.358873C81.8454 -3.03207 109.409 17.8452 114.264 48.6655C116.636 63.7284 113.279 77.6418 104.665 90.2237C103.804 91.4834 103.617 92.5275 104.038 93.95C105.592 99.2088 107.042 104.496 108.653 110.191ZM75.2737 43.4833C75.3502 42.7984 75.3645 42.4056 75.4411 42.0273C76.3498 37.4916 77.3016 32.9656 78.1577 28.4252C78.5739 26.2077 77.6699 24.8043 75.8141 24.4403C73.877 24.0668 72.337 25.1252 71.7917 27.2134C71.6339 27.8313 71.5095 28.4587 71.3804 29.0813C70.4047 33.8325 69.429 38.5789 68.4628 43.2917C63.766 43.2917 59.2844 43.2917 54.6402 43.2917C55.5346 38.871 56.3764 34.6563 57.2469 30.4463C58.0839 26.4088 57.5626 24.8379 55.1903 24.4212C52.7606 23.9949 51.56 25.3264 50.8043 29.1388C49.8621 33.8852 48.8577 38.622 47.8485 43.4929C44.204 43.4929 40.7698 43.3109 37.374 43.603C36.36 43.6892 34.8247 44.9776 34.6621 45.9163C34.4612 47.0419 35.193 48.6463 36.0443 49.542C36.6565 50.179 38.1249 50.1071 39.2202 50.1454C41.5877 50.2221 43.96 50.1694 46.3993 50.1694C46.2128 51.5775 46.1123 52.6886 45.9067 53.7806C45.481 56.0509 45.0027 58.3163 44.5483 60.5817C43.4291 66.1423 43.4291 66.1423 37.7949 66.4296C37.637 66.4392 37.4744 66.4536 37.3166 66.4536C35.1451 66.4823 34.3655 67.809 34.4181 69.7344C34.4708 71.6789 35.4178 72.8906 37.5175 72.8954C38.8615 72.9002 40.2007 72.8954 41.7742 72.8954C41.626 73.8485 41.5399 74.543 41.406 75.2231C40.5498 79.5241 39.6698 83.8202 38.8184 88.1212C38.4214 90.1232 39.2632 91.4546 41.229 91.8234C43.1852 92.1922 44.7014 91.5313 45.1844 89.3664C45.3088 88.8204 45.4379 88.2792 45.5527 87.7332C46.4567 83.3604 47.3081 78.9781 48.3029 74.6244C48.4512 73.9778 49.2308 72.996 49.7425 72.9816C53.8654 72.8475 57.993 72.905 62.2977 72.905C62.1733 73.7815 62.1159 74.3993 61.9963 75.0076C61.1211 79.3852 60.2171 83.7579 59.3657 88.1403C59.007 89.9795 59.734 91.3397 61.5754 91.7995C63.2782 92.2257 64.78 91.742 65.5596 90.0178C65.8801 89.3042 65.9709 88.4804 66.1288 87.6997C67.1379 82.8096 68.1423 77.9148 69.1707 72.9002C72.7435 72.9002 76.082 72.9337 79.4204 72.8906C81.764 72.8619 83.0076 71.5017 82.8354 69.3033C82.6776 67.2199 81.4101 66.3003 79.0761 66.3626C76.2589 66.4344 73.437 66.3818 70.4334 66.3818C71.5956 60.7014 72.667 55.4617 73.7479 50.1694C75.9433 50.1694 77.7751 50.2221 79.5974 50.155C81.6827 50.0784 82.8498 48.8283 82.845 46.8215C82.8402 44.786 81.7019 43.5791 79.6165 43.4881C78.2151 43.4354 76.8042 43.4833 75.2737 43.4833Z" fill="white"/>
<path d="M53.1524 50.2943C57.9783 50.2943 62.4073 50.2943 67.0706 50.2943C66.0375 55.3519 65.0713 60.2468 63.9856 65.1129C63.8804 65.587 63.0243 66.2097 62.5077 66.224C58.404 66.315 54.2955 66.2767 49.9287 66.2767C51.0192 60.8646 52.081 55.6153 53.1524 50.2943Z" fill="white"/>
</g>
<defs>
<clipPath id="clip0">
<rect width="115" height="115" fill="white"/>
</clipPath>
</defs>
</svg>
