<svg width="123" height="160" viewBox="0 0 123 160" fill="none" xmlns="http://www.w3.org/2000/svg">
<g clip-path="url(#clip0)">
<path d="M71.49 0C75.36 13.19 78.8 24.92 82.24 36.65C87.53 54.7 92.88 72.73 98.02 90.82C98.87 93.79 100.19 95.15 103.29 95.72C107.51 96.49 111.78 97.59 115.71 99.29C123.67 102.73 124.86 109.2 117.68 114.04C111.06 118.51 103.47 122.2 95.77 124.28C75.46 129.79 55.17 128.74 35.59 120.55C31.52 118.85 27.57 116.37 24.25 113.46C18.48 108.42 19.31 102.96 26.18 99.72C29.9 97.97 33.97 96.51 38.01 96.02C42.46 95.48 44.06 93.32 45.2 89.34C53.13 61.66 61.28 34.05 69.37 6.42C69.87 4.75 70.46 3.11 71.49 0ZM102.2 108.23C93.15 115.34 82.32 116.23 71.48 116.25C60.54 116.28 49.65 115.27 40.52 108.09C47.35 118.06 58.13 118.53 68.53 118.78C80.83 119.08 93.46 119.25 102.2 108.23Z" fill="white"/>
<path d="M53.14 153.85C43.71 131.15 34.28 108.45 24.04 83.79C21.24 87.81 19.45 90.39 17.65 92.97C15.38 82.91 11.28 75.86 0 73.97C9.26 69.45 14.67 63.09 13.26 51.97C20.44 59.37 27.82 63.61 37.87 56.58C34.13 72.4 34.13 72.4 39.88 82.97C36.38 82.97 33.16 82.97 28.41 82.97C38.13 106.81 47.41 129.58 56.68 152.34C55.51 152.85 54.33 153.35 53.14 153.85Z" fill="white"/>
<path d="M99.22 134.35C99.22 138.11 99.23 140.68 99.22 143.25C99.21 147.39 99.09 151.54 99.19 155.68C99.26 158.44 98.12 160.16 95.4 159.28C88.9 157.18 82.53 154.7 76.11 152.37C76.27 151.83 76.44 151.3 76.6 150.76C79.37 151.16 82.14 151.56 84.9 151.96C85.02 151.45 85.13 150.94 85.25 150.43C82.69 149.59 80.14 148.75 77.58 147.9C77.6 147.47 77.62 147.05 77.65 146.62C80.72 146.26 83.79 145.89 87.63 145.43C83.71 140.73 80.37 145.01 77.21 144.83C77.03 144.27 76.86 143.7 76.68 143.14C83.8 140.38 90.92 137.6 99.22 134.35Z" fill="white"/>
<path d="M57.42 152.02C60.22 151.56 63.01 151.1 65.81 150.64C66 151.19 66.2 151.74 66.39 152.29C59.69 154.66 53.02 157.12 46.24 159.26C45.52 159.49 43.36 157.88 43.31 157.04C42.92 150.28 42.86 143.5 42.77 136.72C42.76 136.31 43.26 135.9 43.96 134.79C51.07 137.54 58.25 140.32 65.44 143.1C65.31 143.53 65.19 143.96 65.06 144.39C61.89 144.01 58.73 143.63 55.56 143.26C55.47 143.99 55.38 144.72 55.29 145.46C58.37 145.86 61.44 146.26 64.52 146.66C64.58 147.09 64.63 147.53 64.69 147.96C62.13 148.75 59.58 149.54 57.02 150.33C57.16 150.89 57.29 151.45 57.42 152.02Z" fill="white"/>
<path d="M70.63 145.66C71.38 144.26 71.89 143.31 72.6 141.98C73.44 142.76 74.48 143.32 74.44 143.76C74.17 146.34 73.93 148.99 73.04 151.38C72.75 152.14 69.37 152.6 69.32 152.48C68.22 149.5 67.37 146.42 66.48 143.35C67 143.15 67.52 142.95 68.05 142.75C68.83 143.63 69.61 144.51 70.63 145.66Z" fill="white"/>
</g>
<defs>
<clipPath id="clip0">
<rect width="122.44" height="159.51" fill="white"/>
</clipPath>
</defs>
</svg>
