<svg width="141" height="143" viewBox="0 0 141 143" fill="none" xmlns="http://www.w3.org/2000/svg">
<g clip-path="url(#clip0)">
<path d="M1.79383 137.397C2.63729 135.837 3.61142 134.326 4.30044 132.706C16.5959 103.252 28.9508 73.8335 41.0443 44.3073C44.1806 36.6768 46.6159 36.4729 53.4824 39.8802C56.8799 41.5719 59.9687 43.8514 63.5326 46.059C66.645 43.1795 68.629 39.3763 70.4703 35.489C74.7351 26.4428 76.2914 16.7367 76.8378 6.82666C77.0279 3.5513 77.0873 3.5513 79.6295 1.64368C82.3381 2.60349 82.1243 4.88304 82.0174 7.10261C81.3521 21.4038 78.204 34.9132 69.8526 46.8388C69.3061 47.5827 68.8784 48.3865 68.427 49.1784C68.3557 49.3223 68.427 49.5383 69.1517 48.9504L93.7664 73.7256C99.0885 72.1539 105.076 68.3746 112.536 68.4346V72.4418L95.881 78.4406C97.7698 81.3561 99.3498 83.5636 100.68 85.9272C102.082 88.2667 103.282 90.7142 104.28 93.2577C105.789 97.4329 104.933 99.2566 100.918 101.068C96.6175 103 92.2576 104.763 87.9097 106.599C62.0476 117.541 36.1736 128.483 10.2997 139.449C8.87412 140.145 7.4842 140.924 6.15368 141.788H1.82947L1.79383 137.397ZM44.4894 118.009C47.1148 118.225 47.1148 118.225 50.1204 116.473C62.404 96.2931 61.9644 69.5624 44.335 50.4261C42.8857 53.9054 41.4957 57.2048 40.0939 60.5641C41.3651 62.1958 42.553 63.5995 43.5509 65.0993C45.2141 67.4868 46.7466 69.9583 48.1365 72.5138C49.2175 74.6494 48.6473 76.3291 45.5467 77.0129L37.7536 65.9991C36.4944 69.2144 35.6747 71.35 34.8431 73.4496C42.2204 87.5709 48.4454 101.704 44.4894 118.009ZM49.1344 43.0716C48.9324 44.7752 48.7542 45.1832 48.873 45.4591C49.4789 46.7788 50.156 48.0626 50.8926 49.3103C56.3454 58.2366 63.3187 65.9271 70.6247 73.3056C77.9307 80.6842 85.5931 87.6548 94.5029 93.0658C95.8216 93.7616 97.1758 94.3615 98.5776 94.8774C97.354 89.2985 94.6455 85.1833 91.3548 81.536L86.3416 82.4599L85.0942 80.0603C85.8664 78.6206 86.5198 77.3969 87.4107 75.7412L65.8253 54.4693L59.9568 55.1052C59.8142 53.0056 59.7192 51.4339 59.5885 49.4903L49.1344 43.0716ZM32.3127 79.7124L24.1395 99.3405C27.9885 107.595 30.412 116.053 28.5825 125.315C35.4727 123.948 37.5754 122.508 39.2861 116.953C40.284 113.678 40.9968 110.138 40.8305 106.767C40.4147 97.5409 37.326 89.0106 32.3127 79.7124ZM63.8533 74.0855L62.7247 74.1695C65.5878 87.4629 63.2593 100.192 58.3174 112.898C73.6303 109.299 78.299 102.484 78.0258 87.3549L63.8533 74.0855ZM21.324 129.215C25.2087 121.548 24.6741 114.41 21.1458 106.443C17.5107 115.657 13.5904 123.9 10.5729 132.526L11.4045 133.378L21.324 129.215ZM83.8468 92.2739C82.8371 96.0892 81.9104 99.6045 80.8175 103.768C85.3318 102.088 89.1452 100.984 92.6616 98.2608L83.8468 92.2739Z" fill="white"/>
<path d="M56.2147 11.2898C60.5745 11.4817 64.0077 15.129 63.9602 19.5442C63.6989 23.7313 60.3726 27.0667 56.2266 27.2946C52.1043 27.4026 48.1246 23.4794 48.1246 19.2922C48.1246 15.105 52.0211 11.2178 56.2147 11.2898ZM55.4663 22.1237C57.7115 21.5838 59.0539 20.6719 58.5075 18.7043C58.1392 17.7565 57.3551 17.0366 56.381 16.7607C54.4446 16.4248 53.6011 17.7565 53.3635 19.8801L55.4663 22.1237Z" fill="white"/>
<path d="M132.827 56.9529C132.91 61.5719 129.679 64.9313 125.141 64.9553C120.971 65.0873 117.478 61.7759 117.348 57.5647C117.348 57.3968 117.348 57.2288 117.348 57.0608C117.241 52.9096 120.496 49.4543 124.606 49.3463C124.665 49.3463 124.725 49.3463 124.772 49.3463C129.394 49.1784 132.744 52.3458 132.827 56.9529ZM127.505 55.0692H123.18C122.337 57.3248 122.396 58.8605 124.428 59.4364C125.176 59.6643 126.091 59.2924 127.196 59.1724C127.291 57.8407 127.386 56.6769 127.505 55.0692Z" fill="white"/>
<path d="M116.041 9.71809C115.898 13.9653 111.907 17.7205 107.773 17.5046C103.543 17.2766 99.9082 13.1974 100.205 9.02222C100.502 4.94302 104.209 1.43971 108.176 1.4877C112.346 1.53569 116.183 5.53091 116.041 9.71809ZM111.253 9.33416L107.891 6.22677L104.862 9.88605L108.473 12.6455L111.253 9.33416Z" fill="white"/>
<path d="M104.47 44.2953C102.736 41.5119 103.496 40.2281 104.862 39.0283C111.812 32.9215 120.163 30.2101 129.085 29.0103C131.449 28.6984 132.862 29.8501 132.268 33.0655C131.021 33.5334 129.75 33.9173 128.455 34.2173C121.244 35.501 114.449 37.6846 108.663 42.5077C107.559 43.4435 105.907 43.7074 104.47 44.2953Z" fill="white"/>
<path d="M24.6741 18.3924C25.2087 16.2448 24.983 13.9173 28.4281 13.4854L30.8872 18.1884L36.6963 21.3558L30.6258 25.0631L28.5112 29.3223C25.0424 29.0823 25.1731 26.7907 24.7335 24.7871C23.1654 23.6114 20.2073 24.3912 19.7559 21.4758C21.5141 19.2922 21.5141 19.2922 24.6741 18.3924Z" fill="white"/>
<path d="M98.5658 46.5989C99.2192 50.7381 96.4037 50.3181 94.4673 50.93C92.8516 52.2498 94.3128 56.173 89.9886 55.7771C89.3828 54.4693 88.6462 52.8976 87.7553 50.978C86.3534 50.1502 82.8608 50.978 83.8706 46.6109L87.9691 44.8112C88.5037 43.4555 89.1452 41.9918 89.6679 40.72C93.9565 39.4003 93.0892 43.0596 94.0515 44.7512L98.5658 46.5989Z" fill="white"/>
<path d="M120.995 115.345L125.58 117.361C126.115 121.296 123.169 120.672 121.078 121.596L119.878 125.759L116.718 126.371C116.041 124.704 115.447 123.24 114.758 121.56C113.427 120.504 110.172 121.56 110.386 117.457L114.948 115.309L116.243 111.578C119.783 111.206 119.783 111.206 120.995 115.345Z" fill="white"/>
<path d="M126.946 102.892C127.517 101.944 127.754 101.224 128.241 100.816C128.728 100.408 129.453 100.312 130.32 99.9884L132.102 102.52C130.724 105.531 129.168 105.243 126.946 102.892Z" fill="white"/>
<path d="M141.202 32.5856C140.157 33.1255 139.111 34.1093 138.22 33.9893C137.329 33.8693 136.521 32.6456 135.618 31.8537C138.838 29.2023 138.838 29.2023 141.202 32.5856Z" fill="white"/>
<path d="M95.4295 26.0829L91.2598 26.8027C91.4142 25.0031 91.5211 23.7553 91.6161 22.5916C94.4673 21.9797 95.5127 22.9275 95.4295 26.0829Z" fill="white"/>
<path d="M121.078 84.4994C118.797 82.4838 118.951 80.9601 121.078 79.5324C124.725 81.764 124.725 81.8839 121.078 84.4994Z" fill="white"/>
<path d="M38.0982 8.50632L38.2882 5.05099C40.3909 4.29514 41.9947 4.45111 42.1254 6.62269C42.256 8.79426 40.676 9.14219 38.0982 8.50632Z" fill="white"/>
<path d="M52.1399 81.776C50.2986 82.7478 49.3363 83.6476 48.4097 83.6116C47.8157 83.5876 46.7941 82.1599 46.8416 81.4281C46.8891 80.6962 48.089 79.4484 48.683 79.5084C49.6096 79.5684 50.453 80.5762 52.1399 81.776Z" fill="white"/>
</g>
<defs>
<clipPath id="clip0">
<rect width="141" height="143" fill="white"/>
</clipPath>
</defs>
</svg>
