<svg width="115" height="122" viewBox="0 0 115 122" fill="none" xmlns="http://www.w3.org/2000/svg">
<g clip-path="url(#clip0)">
<path d="M57.4823 7.34746C61.8229 2.94249 66.8855 0.497736 72.8915 0.118909C84.496 -0.616721 94.32 6.46647 96.1847 17.0252C97.354 23.6458 94.9401 29.1829 90.3204 33.7861C81.9359 42.1511 73.4363 50.4016 64.9854 58.7006C62.8416 60.8062 60.6314 62.8457 58.594 65.0481C57.5531 66.1758 56.8312 65.7794 56.0428 64.9733C54.0363 62.9294 52.1052 60.815 50.0678 58.8063C42.0509 50.9038 34.0828 42.9572 25.9507 35.1781C19.2272 28.7468 16.9063 21.1438 19.7144 13.5144C23.3995 3.50192 35.5621 -2.22894 46.5776 0.819299C50.7277 1.969 54.2844 4.07898 57.4823 7.34746Z" fill="white"/>
<path d="M25.9109 70.4663C25.2111 69.3871 24.4094 68.3607 23.8336 67.2198C22.2656 64.0923 20.649 60.9736 19.3379 57.7359C18.5894 55.8903 19.1741 54.027 21.0388 52.9742C22.8636 51.9478 24.3872 52.9521 25.5521 54.2252C27.5275 56.388 29.2328 58.8019 31.2304 60.9472C34.2245 64.1584 37.2452 67.3652 40.483 70.3209C45.9309 75.2985 49.0579 81.3994 50.1697 88.5971C50.7145 92.1343 51.2105 95.6759 51.773 99.5171C44.4958 100.402 37.511 101.253 30.2648 102.138C28.9272 94.4998 23.2534 90.1785 18.0003 85.6062C10.4795 79.0604 5.35935 70.92 2.1526 61.652C0.332198 56.3924 -0.155015 50.7893 0.0398701 45.1862C0.141742 42.3274 0.221468 39.4685 0.460645 36.6185C0.571375 35.3235 0.730827 33.8522 1.42621 32.8347C2.16589 31.751 3.45479 30.7115 4.70383 30.3855C6.2762 29.9714 7.67583 31.1343 8.03016 32.6585C8.85843 36.2089 9.58039 39.8033 10.0455 43.4154C11.1882 52.2562 15.139 59.705 21.0343 66.2463C22.4428 67.8057 23.9266 69.299 25.3749 70.8231C25.5565 70.7086 25.7337 70.5852 25.9109 70.4663Z" fill="white"/>
<path d="M63.2978 99.5435C64.3431 90.5133 65.0075 81.6593 70.6725 74.3118C72.5371 71.8935 74.9644 69.9113 77.0992 67.6956C80.1421 64.5328 83.1805 61.3656 86.1658 58.15C87.2111 57.0223 88.035 55.6876 89.0891 54.5688C90.378 53.2076 91.8352 51.9478 93.9169 52.9389C95.6399 53.7582 96.4814 55.7669 95.5292 58.1192C94.1428 61.5594 92.3269 64.8279 90.6438 68.1449C90.2274 68.9642 89.6029 69.6778 89.0758 70.4399C89.2264 70.5764 89.377 70.713 89.5276 70.8495C91.1265 69.2461 92.8716 67.7572 94.3023 66.0129C98.953 60.3481 102.86 54.2296 104.348 46.9349C105.065 43.4242 105.291 39.8165 105.84 36.2661C106.026 35.0459 106.235 33.6584 106.948 32.7377C107.758 31.6893 109.145 30.4471 110.274 30.4515C111.395 30.4604 112.719 31.7466 113.556 32.7862C114.185 33.5703 114.358 34.8389 114.446 35.9137C115.164 44.4946 115.616 53.1636 112.909 61.4449C110.15 69.8804 105.637 77.4482 99.0725 83.6371C96.3973 86.1612 93.6379 88.5971 90.9627 91.1212C88.1324 93.7994 86.033 96.9269 84.9877 100.737C84.8459 101.248 83.9069 101.953 83.4109 101.9C76.8246 101.204 70.2472 100.38 63.2978 99.5435Z" fill="white"/>
<path d="M27.5807 122C26.9252 116.868 26.2741 112.159 25.747 107.437C25.5565 105.728 26.6993 104.913 28.2849 104.719C36.5366 103.715 44.7926 102.724 53.3808 101.689C54.0231 107.191 54.6565 112.591 55.3253 118.304C46.0594 119.538 36.9795 120.745 27.5807 122Z" fill="white"/>
<path d="M87.4237 121.996C78.0338 120.749 69.0071 119.546 59.688 118.309C60.3258 112.736 60.9459 107.327 61.5926 101.689C67.9706 102.455 74.0874 103.191 80.2041 103.926C82.3257 104.182 84.4429 104.437 86.5645 104.689C88.2476 104.891 89.4346 105.675 89.2308 107.512C88.6949 112.234 88.0615 116.943 87.4237 121.996Z" fill="white"/>
</g>
<defs>
<clipPath id="clip0">
<rect width="115" height="122" fill="white"/>
</clipPath>
</defs>
</svg>
