<svg width="106" height="134" viewBox="0 0 106 134" fill="none" xmlns="http://www.w3.org/2000/svg">
<path d="M27.0526 112.704C22.1175 111.77 17.3364 110.538 12.7701 108.62C10.6608 107.736 8.62306 106.662 6.62516 105.544C1.26293 102.539 -0.76416 98.1116 0.25469 91.9566C1.51764 84.3188 4.41765 77.5174 9.5915 71.7765C15.2164 65.5344 22.2555 61.6219 30.5867 60.1286C31.0696 60.0415 31.7223 60.2209 32.1362 60.5059C34.8399 62.3711 37.7638 63.7562 40.8575 64.859C44.8347 66.2784 48.9499 66.5317 53.1129 66.5343C57.0238 66.5369 60.9108 66.2072 64.5298 64.669C67.3503 63.4713 70.0141 61.9121 72.7735 60.5613C73.3148 60.2974 74.0073 60.06 74.5724 60.155C89.6801 62.6745 102.373 75.7049 104.493 90.8327C104.671 92.0938 104.724 93.3707 104.899 94.6344C105.39 98.1882 104.164 101.161 101.37 103.238C98.8471 105.116 96.101 106.778 93.262 108.142C88.6294 110.372 83.6174 111.546 78.5948 112.596C78.3905 112.638 78.1702 112.622 78.1676 112.622C78.0615 110.219 78.2658 107.815 77.8041 105.549C75.5727 94.6186 63.5932 88.8751 53.426 93.7031C52.9298 93.9379 52.1444 93.9696 51.6536 93.748C45.4025 90.9514 39.369 91.2997 33.8343 95.323C28.3394 99.3173 26.116 104.86 27.0234 111.601C27.0579 111.862 27.095 112.123 27.1269 112.385C27.1242 112.427 27.103 112.469 27.0526 112.704Z" fill="white"/>
<path d="M52.6088 1.92919e-05C71.2957 0.0211254 84.5169 17.7054 79.4598 36.0176C77.2178 44.1381 72.7815 50.8683 65.6363 55.5248C57.2653 60.9808 48.6183 61.176 40.0377 55.9734C29.154 49.3751 22.6986 35.2841 24.8372 23.1217C27.1932 9.71146 38.8755 -0.0158103 52.6088 1.92919e-05Z" fill="white"/>
<path d="M52.4893 100.528C56.4135 97.117 60.7781 96.0776 65.5911 98.0009C73.4554 101.138 75.6257 110.91 69.7488 117.247C65.3762 121.959 60.6799 126.373 56.1243 130.918C55.782 131.261 55.4451 131.612 55.0842 131.934C53.5188 133.314 51.4148 133.398 49.9289 131.939C44.962 127.061 39.9262 122.239 35.1636 117.165C30.6583 112.369 30.8786 105.129 35.3201 100.689C39.9421 96.067 47.021 95.8744 52.094 100.233C52.1895 100.317 52.301 100.388 52.4893 100.528Z" fill="white"/>
</svg>
