<svg width="101" height="131" viewBox="0 0 101 131" fill="none" xmlns="http://www.w3.org/2000/svg">
<path d="M64.4688 58.1337C65.7078 59.8909 67.1287 61.8464 68.4859 63.8475C71.5277 68.3328 74.4604 72.891 77.5726 77.3262C83.6971 86.0576 90.049 94.618 97.2034 102.547C98.3446 103.812 99.5404 105.029 100.9 106.469C98.4151 108.737 95.9416 110.993 93.259 113.441C84.3382 100.683 75.563 88.1316 66.89 75.7286C66.965 75.863 67.1264 76.1912 67.3242 76.4921C75.3379 88.6558 83.347 100.819 91.3857 112.965C92.0678 113.995 92.8862 114.961 93.7728 115.821C94.4435 116.47 94.4139 116.988 93.8069 117.519C92.9589 118.262 92.1314 119.096 91.147 119.606C87.9529 121.259 84.6292 122.665 81.4783 124.395C79.2413 125.623 76.852 125.372 74.5126 125.644C74.2785 125.671 73.8534 125.133 73.717 124.78C70.8661 117.421 67.9403 110.089 65.2486 102.672C62.2864 94.5086 59.5492 86.265 56.712 78.0578C56.6392 77.8459 56.546 77.643 56.296 77.4789C56.5074 78.2629 56.7029 79.0515 56.9325 79.831C61.3838 95.0236 66.7604 109.899 72.1642 124.769C72.9622 126.963 72.9849 127.141 70.7616 127.674C66.94 128.588 63.0616 129.263 59.2241 130.113C55.8686 130.856 52.4812 131.159 49.0689 130.915C42.7147 130.462 36.4243 129.577 30.2952 127.761C27.9627 127.07 27.9763 127.048 28.8061 124.775C34.26 109.804 39.6911 94.8254 44.1902 79.5256C44.3266 79.0652 44.4266 78.5957 44.3447 78.0715C44.0651 78.949 43.7923 79.8287 43.5081 80.7062C38.6476 95.655 32.9414 110.287 27.2216 124.914C26.967 125.566 26.6419 125.837 25.9712 125.666C25.8985 125.648 25.8212 125.632 25.7461 125.637C22.3565 125.835 19.3988 124.522 16.4821 123.018C14.0927 121.785 11.642 120.668 9.29362 119.365C8.36153 118.847 7.5954 118 6.83608 117.22C6.65194 117.031 6.63375 116.359 6.81108 116.176C10.2075 112.701 12.5628 108.466 15.2294 104.48C21.4085 95.2424 27.4012 85.8821 33.4643 76.5673C33.6803 76.2368 33.8531 75.8767 33.8872 75.8174C25.2937 88.1088 16.5253 100.649 7.58858 113.43C4.93553 111.019 2.46436 108.771 0 106.535C2.38024 103.883 4.66272 101.455 6.81335 98.9187C14.527 89.8227 21.4472 80.1273 28.1628 70.2837C31.0863 65.999 34.0372 61.7347 36.9608 57.4522C37.5905 56.5292 38.268 56.2511 39.4888 56.4061C43.5763 56.9235 47.6912 57.2175 51.7992 57.5525C53.0496 57.6551 53.2246 58.6214 53.5338 59.4852C53.9748 60.7114 55.1638 61.7074 56.3824 61.721C56.8257 61.7256 57.2849 61.6299 57.7123 61.4954C59.2627 61.01 60.8473 60.5929 62.325 59.9365C63.107 59.5901 63.6958 58.806 64.4688 58.1337Z" fill="white"/>
<path d="M80.3144 30.1278C75.8403 28.9495 71.3754 29.7517 66.9536 29.5193C66.5444 29.4987 66.1352 29.517 65.576 29.517C66.183 30.5768 66.7172 31.5067 67.2514 32.4365C67.7675 33.3345 67.6652 34.1459 67.2105 35.1031C65.8851 37.9087 64.7098 40.7873 63.439 43.6202C63.3003 43.9279 62.9479 44.2857 62.6387 44.3473C54.4841 46.011 46.3226 45.9996 38.168 44.345C37.8838 44.288 37.5496 43.9758 37.4246 43.6977C36.0924 40.7257 34.7692 37.7492 33.5189 34.743C33.2984 34.2143 33.2211 33.4599 33.4257 32.9493C33.8803 31.8121 34.5578 30.7637 35.258 29.4646C30.2998 29.8361 25.4211 28.9016 20.406 30.1529C20.5378 29.6628 20.5947 29.2685 20.747 28.9153C21.4085 27.3769 22.568 26.3353 24.0661 25.6402C25.5074 24.9701 26.9465 24.2909 28.3901 23.6254C29.0744 23.3086 29.7382 23.067 29.8246 22.0939C29.8587 21.7087 30.3839 21.3098 30.7635 21.0181C33.2029 19.1424 36.0355 17.9367 39.0273 17.8638C41.6462 17.8 43.0171 16.4302 44.3448 14.6297C44.6585 14.2035 44.9563 13.7591 45.22 13.301C46.3067 11.4048 47.6912 9.92788 50.1146 9.82076C50.1396 9.37861 50.2056 9.0094 50.1737 8.64929C50.0532 7.26586 50.3738 6.10123 51.3286 4.99813C52.504 3.63977 52.3857 2.40905 51.2809 1.36521C50.1556 0.300853 48.4846 0.255271 47.2502 1.28088C46.9023 1.57033 46.6409 1.97145 46.2749 2.22899C45.8998 2.49337 45.4451 2.6438 44.929 2.59821C45.6474 1.97145 46.3363 1.30595 47.091 0.72705C48.5301 -0.371489 50.5034 -0.200554 51.7537 1.07348C52.9405 2.28369 53.095 3.80159 51.7719 5.25795C50.5238 6.63227 50.6011 8.10458 50.7216 9.82532C53.4315 9.87318 54.7114 11.7945 55.9686 13.8024C56.5665 14.7596 57.2349 15.7328 58.0783 16.4576C59.0172 17.2644 60.0243 17.7772 61.5089 17.8478C64.9053 18.0051 68.0812 19.2267 70.7116 21.556C70.7957 21.6289 70.9071 21.7269 70.9162 21.8226C71.0457 23.3611 72.3779 23.5593 73.4146 24.0676C74.6036 24.651 75.8244 25.1707 77.0134 25.7541C78.9412 26.6931 80.1848 28.3341 80.3144 30.1278ZM59.7106 19.9492C56.471 18.2763 53.5929 16.7835 50.7057 15.3157C50.5375 15.2314 50.2465 15.2565 50.0692 15.3454C47.2115 16.804 44.363 18.2809 41.3871 19.8193C43.5877 22.2944 45.6974 24.6488 48.3118 26.504C49.7759 27.5433 51.2309 27.6048 52.5722 26.4356C54.9274 24.3798 57.2053 22.2329 59.7106 19.9492ZM25.2233 28.17C25.2346 28.2293 25.246 28.2908 25.2574 28.3501C27.9991 28.3501 30.7431 28.3501 33.528 28.3501C32.4822 27.3746 31.5069 26.4629 30.4498 25.4784C28.8311 26.3125 27.0261 27.2401 25.2233 28.17ZM67.2128 28.3729C70.1296 28.3729 72.8599 28.3729 75.5925 28.3729C75.613 28.3136 75.6334 28.2521 75.6539 28.1928C73.8261 27.2492 71.9983 26.3034 70.3433 25.4487C69.2861 26.4356 68.3222 27.3359 67.2128 28.3729Z" fill="white"/>
<path d="M38.8272 55.1252C38.5112 51.9253 38.202 48.8098 37.886 45.6236C46.2908 47.1893 54.5523 47.1916 62.9434 45.6258C62.7456 47.709 62.5546 49.7283 62.3227 52.1669C60.2835 49.7921 58.0192 49.4684 55.498 50.5556C53.0564 51.6085 51.265 53.0695 52.0652 56.3104C47.507 56.4768 43.2171 55.7292 38.8272 55.1252Z" fill="white"/>
<path d="M56.0641 57.5844C56.2914 57.7531 56.4983 57.9764 56.7529 58.0812C58.001 58.5963 58.0056 58.5849 58.7353 59.7815C57.9101 60.8025 56.3346 61.0601 55.3503 60.333C54.0931 59.4054 53.8134 58.022 54.6841 56.7776C55.1547 57.0579 55.6276 57.3405 56.1027 57.6231C56.1005 57.6209 56.0641 57.5844 56.0641 57.5844Z" fill="white"/>
<path d="M56.4006 52.8552C56.4438 53.2723 56.5665 53.703 56.512 54.1064C56.3665 55.1708 56.6643 55.9958 57.5145 56.6773C57.801 56.9075 57.9169 57.3474 58.1124 57.6938C57.71 57.7303 57.3076 57.8032 56.9075 57.7895C56.6256 57.7804 56.346 57.655 56.0664 57.5821L56.1027 57.6186C56.0073 57.4363 55.9527 57.1422 55.8072 57.0853C54.2749 56.4767 54.5091 55.1617 54.5705 53.9583C54.625 52.8826 55.4662 52.4199 56.4097 52.8712C56.4119 52.878 56.4006 52.8552 56.4006 52.8552Z" fill="white"/>
<path d="M53.8111 57.6118C52.4835 56.4426 52.7245 55.0341 53.0518 53.792C53.2951 52.8689 53.9271 51.9117 55.4002 52.1555C53.8884 53.2655 54.2204 54.7537 54.2954 56.2169C54.3181 56.6454 54.0044 57.0876 53.8111 57.6118Z" fill="white"/>
<path d="M57.1894 53.3361C57.7691 53.1196 58.3511 52.9031 58.9308 52.6866C58.1238 53.3316 58.026 54.0928 58.4148 54.8836C58.5853 55.2301 59.0559 55.4284 59.3901 55.6927C59.7902 55.1503 60.1903 54.6056 60.6722 53.9538C60.6722 54.6238 60.9428 55.5697 60.5904 56.005C60.2903 56.3742 59.2059 56.356 58.5807 56.1554C57.219 55.7224 56.7257 54.5121 57.2167 53.3042C57.2167 53.3019 57.1894 53.3361 57.1894 53.3361Z" fill="white"/>
<path d="M58.483 58.4049C61.1951 58.6875 62.2613 58.193 62.8729 54.0791C63.7391 55.3167 63.4503 57.4044 62.2932 58.2978C61.2906 59.0681 59.1536 59.1935 58.483 58.4049Z" fill="white"/>
<path d="M61.5816 54.3116C61.6248 55.2164 61.9158 56.2055 61.6475 57.0078C61.2952 58.0653 60.2085 58.2978 59.1354 58.0881C58.9081 58.0425 58.7217 57.785 58.5148 57.6254C58.7035 57.4613 58.8694 57.1992 59.0877 57.1445C61.0337 56.6477 61.2588 56.3674 61.1815 54.3731C61.3134 54.3526 61.4475 54.3321 61.5816 54.3116Z" fill="white"/>
<path d="M57.0985 52.1601C56.6506 52.1988 56.2028 52.2376 55.7527 52.2741C55.7026 52.1669 55.6549 52.0598 55.6049 51.955C55.8072 51.7544 55.9777 51.4331 56.2142 51.3761C57.0076 51.1869 57.8214 51.0296 58.633 50.9727C59.8038 50.8883 60.2562 51.4809 60.0835 52.837C59.6242 52.5476 59.1946 52.2786 58.7626 52.0074C58.2079 52.0575 57.6532 52.1077 57.0985 52.1601Z" fill="white"/>
<path d="M60.4176 51.7863C62.6546 54.1657 62.6546 54.1657 62.3 55.4466C61.8385 54.8153 61.2815 54.1498 60.8405 53.4114C60.6154 53.0353 60.5995 52.5316 60.4176 51.7863Z" fill="white"/>
<path d="M57.0985 52.1601C57.6532 52.1099 58.2079 52.0575 58.7649 52.0074C58.533 52.2034 58.2988 52.3971 58.067 52.5931C57.7737 52.8393 57.4827 53.0877 57.1917 53.3361C57.1917 53.3384 57.219 53.3019 57.219 53.3042C56.9484 53.1583 56.6802 53.0125 56.4074 52.8598C56.4028 52.8552 56.4142 52.878 56.4097 52.8735C56.6347 52.6319 56.8666 52.3948 57.0985 52.1601Z" fill="white"/>
</svg>
