<svg width="298" height="282" viewBox="0 0 298 282" fill="none" xmlns="http://www.w3.org/2000/svg">
<g clip-path="url(#clip0)">
<path d="M234.37 45.4138C232.852 45.1164 231.334 44.3963 229.926 43.5979C227.204 42.189 225.186 39.7625 223.355 37.3361C222.448 35.9272 221.634 34.6122 221.04 33.0937C220.836 32.5928 220.727 32.0762 220.132 32.3893C219.428 32.6867 218.615 32.9998 218.114 33.6103C217.613 34.1112 217.41 34.6278 217.097 35.2227C216.69 35.8332 216.284 36.2403 215.986 36.8351C215.282 38.4475 215.173 40.1695 214.969 41.782C214.766 43.5039 214.469 45.1164 214.469 46.8384C214.375 48.6543 214.578 50.3763 214.672 52.1922C214.969 55.824 215.173 59.4715 215.892 63.0094C216.299 64.8254 216.706 66.5474 217.113 68.2693C217.41 69.6783 217.613 71.3063 218.13 72.7152C219.35 75.6426 221.775 78.3821 223.793 80.8086C224.904 82.0296 226.218 82.1236 227.627 81.4191C228.847 80.9182 229.441 79.8067 229.848 78.5857C231.162 75.3452 232.273 72.1203 232.883 68.6764C233.587 64.9349 234.104 61.0996 234.604 57.2486C234.902 55.3231 235.105 53.4132 235.418 51.4877C235.527 50.5798 235.731 49.6718 235.825 48.7639C235.919 48.1533 236.122 47.0419 236.122 47.0419C236.404 45.6173 235.293 45.6173 234.37 45.4138Z" fill="#FFB800"/>
<path d="M255.163 1.70641C243.507 -1.14271 231.929 -0.485221 220.852 4.16416C202.359 11.9288 190.03 29.2427 186.886 48.1063C184.805 60.6299 186.776 73.8423 193.723 85.3797C198.745 93.7235 205.519 100.283 213.937 105.136C218.568 107.813 223.465 109.926 228.69 110.943C232.477 111.679 236.31 111.851 240.127 112.337C242.552 112.65 242.662 112.493 241.911 114.701C241.316 116.469 239.986 117.878 239.001 119.413C239.454 119.553 244.039 119.381 244.039 119.538C244.039 120.32 244.039 120.994 244.039 121.651C244.039 131.388 243.976 141.141 244.07 150.878C244.101 153.477 244.101 155.966 242.49 158.173C242.349 158.377 242.271 158.643 242.224 158.878C241.598 161.993 241.035 165.108 240.362 168.208C238.938 174.72 237.796 181.31 235.121 187.478C234.87 188.057 234.636 188.652 234.464 189.106C232.461 187.854 233.071 185.882 232.946 184.128C232.883 183.189 231.726 182.218 232.962 181.263C233.024 181.216 232.883 180.872 232.789 180.7C230.975 177.663 229.676 174.266 226.61 172.059C227.11 171.589 227.517 171.198 227.986 170.759C227.032 170.759 225.968 171.072 225.389 170.681C224.716 170.211 224.45 169.131 224.012 168.317C223.934 168.348 223.856 168.395 223.778 168.427C223.746 169.022 223.715 169.601 223.684 170.384C220.711 169.006 217.754 169.037 214.922 170.211C212.763 171.104 210.745 172.325 208.664 173.389C207.96 173.749 207.225 174.078 206.505 174.438C206.536 174.532 206.583 174.626 206.615 174.72C207.24 174.751 207.851 174.782 208.758 174.829C204.299 178.868 204.721 184.66 202.375 189.498C204.221 189.513 205.926 189.466 207.444 188.918C208.93 188.371 210.229 187.322 211.605 186.492C210.917 187.353 210.166 188.104 209.259 188.637C207.96 189.404 207.694 190.233 208.648 191.439C208.805 191.627 208.868 191.893 208.993 192.112C211.386 196.354 217.332 199.704 222.26 197.748C224.325 196.934 226.187 195.556 228.299 194.335C228.268 194.961 228.518 195.979 228.143 196.354C225.311 199.157 222.401 201.88 219.444 204.557C217.504 206.311 215.486 207.97 213.561 209.723C211.465 211.633 210.166 211.649 207.334 211.915C206.787 211.962 206.051 212.275 206.208 212.807C206.286 213.042 206.505 213.167 206.662 213.355C208.93 215.891 204.44 213.856 204.706 213.887C203.047 213.684 201.561 214.31 201.843 216.423C201.921 217.034 202.093 217.566 202.343 218.036C202.75 217.331 203.157 216.627 203.564 215.938C204.706 216.283 205.77 216.596 207.053 216.971C206.583 218.051 206.114 219.147 205.645 220.243C206.755 220.368 207.913 220.118 208.899 219.476C215.173 215.39 221.181 210.913 227.314 206.608C227.439 206.53 227.564 206.467 227.892 206.279C227.971 206.906 228.096 207.438 228.096 207.97C228.111 210.428 228.143 212.886 228.08 215.359C228.065 216.095 227.877 216.877 227.611 217.566C226.61 220.18 225.655 222.826 224.466 225.362C223.809 226.771 223.371 227.851 225.155 228.54C222.964 232.782 220.789 236.884 218.724 241.032C218.177 242.144 217.347 242.692 216.252 243.099C215.22 243.49 214.281 244.069 213.123 244.664C215.048 247.388 217.488 248.906 220.476 249.548C221.603 249.783 221.728 248.781 221.916 247.983C222.26 246.511 222.323 244.868 223.058 243.615C225.108 240.156 227.486 236.9 229.629 233.502C230.537 232.062 231.381 231.092 233.087 232.626C235.199 229.072 237.217 225.691 239.361 222.09C241.707 225.519 243.867 228.681 246.026 231.843C246.98 231.499 247.825 230.309 248.529 231.906C250.719 236.946 252.941 241.987 255.131 247.028C255.648 248.233 256.555 248.985 257.791 248.985C260.107 248.985 262.234 248.249 263.94 246.621C264.957 245.635 264.753 244.32 263.486 243.772C262.61 243.396 261.64 243.177 260.701 243.052C259.168 242.833 258.307 242.081 257.854 240.531C256.884 237.103 255.82 233.675 254.584 230.34C254.005 228.79 253.911 227.773 255.616 227.068C256.054 226.881 256.414 226.489 257.071 225.988C254.412 221.809 251.767 217.676 249.17 213.496C248.826 212.948 248.748 212.212 248.67 211.555C248.451 209.442 248.638 207.203 248.028 205.215C247.027 202.021 245.494 199 244.226 195.9C243.663 194.523 242.803 193.098 242.818 191.705C242.834 189.153 243.694 186.696 243.757 184.066C243.898 178.086 244.555 172.106 245.024 166.126C245.056 165.797 245.368 165.484 245.541 165.171C245.807 165.484 246.213 165.765 246.292 166.11C246.542 167.315 246.808 168.536 246.808 169.757C246.808 174.923 246.714 180.089 246.683 185.271C246.683 185.694 246.996 186.116 247.168 186.539C247.402 186.148 247.825 185.788 247.856 185.381C248.106 181.702 248.169 178.007 248.529 174.344C248.873 170.838 246.73 167.441 248.451 163.793C248.936 162.76 249.264 160.693 248.013 159.3C247.934 159.206 247.997 158.909 248.075 158.768C248.623 157.782 247.934 157.547 247.246 157.234C246.87 157.062 246.307 156.795 246.245 156.482C245.9 154.541 245.478 152.584 245.462 150.643C245.384 141.47 245.431 132.296 245.431 123.107C245.431 118.755 245.431 118.802 249.859 118.473C250.766 118.411 251.642 117.784 252.534 117.424C251.893 116.845 251.267 116.25 250.594 115.702C250.125 115.311 249.499 115.092 249.108 114.654C248.529 114.027 248.091 113.292 247.402 112.337C257.15 111.272 265.692 108.157 273.421 102.881C281.087 97.6528 287.126 90.9527 291.507 82.7497C295.935 74.4528 298.078 65.5924 298.063 56.2153C297.969 31.0116 280.993 8.03082 255.163 1.70641ZM281.76 61.4909C281.463 65.0288 281.557 68.4728 281.259 71.9011C280.853 75.3451 280.242 78.883 279.632 82.2175C279.429 83.6264 278.928 84.9413 278.427 86.2563C278.021 87.4774 277.317 88.6828 276.002 88.8863C274.579 88.9802 273.483 88.4793 272.154 88.1818C270.745 87.8844 269.525 87.1643 268.524 86.0528C267.616 84.8318 267.006 83.4229 266.193 82.1079C265.379 80.4955 264.487 78.8674 263.674 77.255C262.156 74.1241 260.842 70.8836 259.637 67.6588C258.323 64.4183 256.915 61.2874 255.601 58.0626C254.787 56.0431 254.083 53.9141 253.379 51.8947C252.972 50.8772 252.675 49.8753 252.268 48.8577C252.174 48.4507 252.065 48.0437 251.971 47.7463C251.877 47.5428 251.768 47.4488 251.674 47.4488C251.267 47.2453 251.376 54.4307 251.267 57.9686C251.173 59.5811 250.97 61.2091 250.97 62.8215C250.97 64.5435 251.079 66.3595 250.97 68.0815C250.672 71.5254 250.672 80.5111 249.859 83.7516C249.452 85.2701 249.155 85.6771 248.341 86.8825C247.84 87.7905 246.824 88.1975 246.417 86.9764C245.509 84.3308 245.744 59.2993 245.916 46.3374C244.79 46.4469 243.663 46.5096 242.568 46.4469C241.348 46.4469 240.55 46.7444 240.346 47.9654C240.252 49.0769 240.346 50.2979 240.252 51.4094C239.846 58.6888 238.125 65.7646 236.404 72.7465C235.59 75.987 234.886 79.6188 233.165 82.4523C232.461 83.5637 231.757 84.8787 230.646 85.4892C229.128 86.3033 227.72 87.3052 225.999 87.9157C222.87 88.9332 219.428 89.3402 216.299 88.5262C213.17 87.7122 210.745 85.8023 208.711 83.3759C206.599 80.8399 204.675 78.2256 203.157 75.3921C201.53 72.1516 200.732 68.9268 200.435 65.3889C200.028 61.851 199.731 58.2035 199.731 54.6655C199.731 52.9436 199.824 51.2216 199.934 49.5152C200.028 47.6993 200.544 46.1808 201.154 44.4588C202.265 41.2183 203.47 38.291 205.504 35.3636C207.225 32.9371 208.946 30.4167 211.465 28.6947C212.888 27.7868 214.594 27.1763 216.315 26.8788C217.222 26.7849 218.13 26.7849 219.037 26.8788C219.851 26.9728 220.742 27.4894 221.462 27.3798C222.166 27.1763 222.573 26.5657 223.089 26.1587C223.793 25.5482 224.607 25.1412 225.311 24.7342C227.032 24.0297 228.847 23.7166 230.662 23.9201C231.475 23.9201 232.289 24.2176 233.181 24.3271C233.994 24.4211 234.808 24.4211 235.606 24.7342C237.233 25.4386 237.53 27.1606 237.937 28.6791C238.438 30.4011 239.345 32.1231 239.752 33.939C240.159 36.1619 240.456 40.6078 240.362 41.0148C240.362 40.9209 239.752 43.7387 241.473 43.5509C242.943 43.2847 244.477 43.2534 245.979 43.1752C245.994 41.8132 246.01 40.6861 246.026 39.9034C246.026 36.2715 246.026 32.7336 245.932 29.0861C245.932 28.2721 245.932 27.5676 245.822 26.7692C245.822 26.2683 245.619 25.5482 245.822 25.0473C246.229 24.2332 247.637 24.1393 248.451 24.1393C248.951 24.1393 249.264 24.3428 249.765 24.4367C250.469 24.6402 251.189 24.5307 251.987 24.5307C253.504 24.7342 254.818 25.9396 256.023 26.9571C258.245 28.8826 260.67 30.6046 262.297 33.125C264.018 35.8489 264.206 39.1989 264.816 42.3298C265.113 43.9422 265.629 45.3668 266.224 46.8853C266.834 48.4038 267.131 50.0162 267.648 51.6442C268.148 52.9592 268.868 54.2742 269.275 55.6831C269.775 57.2016 270.683 58.814 271.293 60.3325C271.903 61.851 272.513 63.3694 273.108 64.8879C273.405 65.5924 273.609 66.2968 273.718 67.1109C273.812 67.8153 273.718 68.8329 274.125 69.4434C274.626 70.2574 274.532 71.5724 274.829 72.4804C275.126 73.3883 275.33 74.4998 275.94 75.4077C276.347 71.9638 276.253 68.4258 276.347 64.9975C276.55 61.3657 276.644 57.7182 276.753 54.0863C277.051 47.0105 277.364 39.8407 277.457 32.7493C277.457 31.0273 277.551 29.4149 277.661 27.6929C277.661 26.8788 277.661 26.1744 277.567 25.3603C277.567 25.0629 277.27 24.3428 277.661 24.0454C278.881 23.3409 280.086 24.8594 280.383 25.7674C280.884 27.2858 281.087 28.8983 281.291 30.5107C281.494 32.1231 281.494 33.7512 281.697 35.3636C281.901 37.0856 281.901 49.0143 281.995 50.7363C281.963 54.3212 282.073 57.953 281.76 61.4909Z" fill="#FFB800"/>
<path d="M235.293 32.17C234.996 30.5576 234.792 28.6321 233.775 27.2232C231.46 24.2958 226.797 26.2057 225.686 29.2426C223.981 33.892 228.221 37.1325 231.037 40.0599C232.148 41.1714 234.072 42.7838 235.778 42.7838C237.202 42.7838 236.591 39.3398 236.591 39.4494C236.607 39.4494 235.793 34.5026 235.293 32.17Z" fill="#FFB800"/>
<path d="M202.343 217.989C201.06 220.227 199.762 222.466 198.463 224.705C196.758 227.616 195.021 230.497 193.253 233.455C192.049 232.438 191.72 231.749 192.69 230.575C193.895 229.103 194.693 227.209 194.192 225.284C193.691 223.405 192.925 221.511 191.908 219.852C190.86 218.13 189.311 216.752 187.418 217.05C188.09 216.627 189.608 216.204 189.843 215.406C190.249 214.013 188.747 213.277 187.683 212.635C184.492 210.694 181.191 210.929 177.811 212.181C173.556 213.746 170.52 218.255 170.818 222.732C170.865 223.499 170.88 224.266 170.865 225.033C170.833 226.834 169.973 228.164 168.377 228.947C167.376 229.432 166.312 229.792 165.279 230.231C164.34 230.638 164.059 231.217 164.732 232.125C168.299 236.962 174.776 239.357 180.314 235.663C180.612 235.459 181.112 235.334 181.425 235.444C183.303 236.101 185.133 236.054 186.979 235.365C187.245 235.256 187.668 235.537 188.012 235.647C187.856 235.96 187.777 236.398 187.511 236.571C186.494 237.244 185.462 237.901 184.382 238.449C179.266 241.048 174.134 243.647 168.971 246.151C167.282 246.965 166.812 246.637 166.14 244.868C165.889 244.21 165.576 243.553 165.185 242.958C165.044 242.739 164.606 242.723 164.309 242.613C164.231 242.879 164.043 243.193 164.106 243.427C164.262 244.085 164.528 244.711 164.747 245.353C163.777 244.742 163.136 243.897 162.369 243.208C162.025 242.895 161.415 242.879 160.914 242.739C160.961 243.239 160.836 243.85 161.07 244.241C161.571 245.024 162.275 245.682 163.183 246.73C161.587 245.822 160.382 245.087 159.146 244.445C158.88 244.304 158.458 244.445 158.098 244.461C158.192 244.821 158.192 245.228 158.379 245.509C158.63 245.869 159.005 246.167 159.365 246.433C160.1 246.965 160.851 247.466 161.602 247.983C161.571 248.03 161.54 248.077 161.509 248.124C160.366 247.779 159.209 247.451 158.067 247.106C157.973 247.278 157.879 247.451 157.769 247.638C158.145 248.045 158.458 248.64 158.927 248.844C160.038 249.345 161.227 249.642 162.369 250.081C163.026 250.331 163.652 250.675 164.466 251.051C163.746 251.834 163.151 252.303 162.823 252.898C162.588 253.321 162.698 253.932 162.651 254.464C163.151 254.37 163.699 254.386 164.121 254.151C164.591 253.885 164.919 253.384 165.326 252.992C166.938 251.411 168.455 249.924 170.833 249.22C174.776 248.045 178.547 246.308 182.395 244.805C183.678 244.304 184.977 243.803 186.541 243.208C186.166 245.337 185.79 247.091 185.587 248.844C185.368 250.738 185.055 252.46 183.052 253.368C182.333 253.697 181.723 254.276 181.065 254.761C179.329 256.045 177.592 257.344 175.793 258.69C176.215 259.301 176.466 259.818 176.841 260.209C177.623 261.039 177.561 261.634 176.747 262.495C174.682 264.67 172.773 267.003 170.708 269.179C170.301 269.602 169.488 269.774 168.862 269.805C167.97 269.836 167.078 269.633 166.187 269.523C166.108 269.696 166.03 269.852 165.952 270.024C167.063 271.778 168.596 273.124 170.489 274.048C171.35 274.47 171.709 273.734 172.085 273.093C172.57 272.232 173.039 271.292 173.743 270.635C175.683 268.835 177.796 267.238 179.736 265.438C180.612 264.624 181.206 264.764 182.145 265.281C185.18 266.987 188.497 267.848 191.97 267.817C195.178 267.786 195.334 267.645 196.195 270.729C197.118 274.032 198.948 277.147 198.541 280.779C198.51 281.123 199.011 281.797 199.355 281.875C201.389 282.297 203.345 281.922 205.598 280.982C204.643 280.106 203.986 279.323 203.173 278.791C202.124 278.133 201.608 277.241 201.373 276.083C200.763 272.92 200.153 269.774 199.511 266.471C200.122 266.236 200.716 265.892 201.342 265.782C202.672 265.578 202.875 264.984 202.422 263.763C201.389 261.054 200.45 258.299 199.496 255.544C199.12 254.448 198.604 253.337 198.557 252.225C198.354 247.717 198.307 243.208 198.244 238.7C198.229 237.995 198.338 237.244 198.604 236.618C200.56 231.968 202.578 227.335 204.565 222.701C204.925 221.871 205.269 221.057 205.629 220.227C204.283 220.04 203.032 219.304 202.343 217.989Z" fill="#FFB800"/>
<path d="M170.833 115.233C172.46 107.39 177.076 102.568 185.086 101.05C177.076 99.5156 172.445 94.694 170.833 86.8198C169.316 94.8349 164.512 99.406 156.737 101.081C164.653 102.709 169.237 107.343 170.833 115.233Z" fill="#FFB800"/>
<path d="M172.304 61.5535C173.462 55.9961 176.716 52.5991 182.38 51.519C176.716 50.4231 173.446 47.0261 172.304 41.4531C171.224 47.1201 167.829 50.3605 162.338 51.5346C167.939 52.693 171.177 55.9805 172.304 61.5535Z" fill="#FFB800"/>
<path d="M176.309 85.3797C179.47 86.3659 181.582 88.3071 182.348 91.6258C183.209 88.3541 185.337 86.3973 188.45 85.3484C185.071 84.55 183.35 82.3271 182.348 78.9927C181.457 82.468 179.626 84.5813 176.309 85.3797Z" fill="#FFB800"/>
<path d="M30.8216 55.8242C31.7291 54.7127 32.3393 53.3977 33.2467 52.2862C33.8569 51.5818 34.0603 50.9713 34.2637 50.0633C34.3575 49.3588 34.7643 48.9518 35.1711 48.3413C35.8751 47.2298 35.9847 45.6174 36.2819 44.3024C36.3758 43.8954 36.4853 43.3945 36.4853 42.8935C36.4853 42.3926 36.7826 42.3926 37.2989 42.1891C38.0029 41.7821 38.707 41.3751 39.5206 41.0776C40.9286 40.3732 42.2429 39.5591 43.7605 39.0582C44.8713 38.5572 46.6862 38.3537 47.5936 37.3362C47.797 37.0388 48.0004 36.4282 47.4998 36.3187C46.9991 36.1151 46.3889 36.4126 45.9821 36.5222C42.6497 37.5397 39.7083 39.1521 36.6887 40.6706C36.6887 39.5591 36.5948 38.4477 36.7826 37.2266C36.8765 36.3187 36.986 35.4107 36.8765 34.5027C36.6731 32.8903 35.5622 31.4658 34.5453 30.2604C32.4175 27.5365 29.2884 25.11 25.9559 24.0925C22.42 23.075 19.0875 24.7969 16.5529 27.2234C15.1449 28.6323 13.9245 30.1508 12.7198 31.6693C11.7028 32.9842 10.7954 34.3932 10.2947 36.0212C10.0914 35.2072 10.0914 34.0018 9.99748 33.0938C9.90361 32.2798 9.70021 31.8728 9.79409 30.9648C9.88796 29.5559 9.5907 28.1314 8.57374 27.0199C7.55678 26.0023 6.14868 25.4075 4.74059 25.4075C3.62976 25.3135 1.70536 25.4075 1.50197 26.7225C0.797919 29.9629 1.09518 33.2973 0.594527 36.5222C-0.516304 43.5041 0.187744 50.7677 0.297263 57.7497C0.391136 64.9351 0.500654 67.2519 0.594527 74.4373C0.594527 77.8813 0.500654 81.4192 0.891792 84.8476C0.985665 85.8651 1.29858 90.718 3.01958 90.718C3.83315 90.718 4.5372 89.3091 4.83446 88.7925C5.53851 87.681 6.24256 86.46 7.05612 85.552C7.55678 85.0511 7.55678 84.331 7.96356 83.7361C8.26083 83.1256 8.37035 82.4211 8.46422 81.8106C8.66761 80.2921 9.37166 78.8832 9.68457 77.3647C9.98183 75.7523 9.88796 74.2338 10.1852 72.6214C10.4825 71.009 10.8893 71.6039 10.9988 69.8975C11.2022 66.7666 11.7028 66.4535 11.8124 63.2287C12.0157 59.6908 12.1096 56.1529 11.7185 52.615C11.4212 49.3745 10.7015 45.8366 11.1083 42.6118C11.3117 40.8898 12.1253 39.4809 13.1266 38.072C14.034 36.757 14.7381 35.442 15.5516 34.127C16.4591 32.812 17.7733 31.6067 18.9936 30.5891C20.1045 29.6812 21.2153 28.6636 22.5295 28.0531C26.879 25.9241 26.4722 32.812 26.2688 35.2385C26.0654 38.6825 25.158 41.9073 24.141 45.1478C23.9376 45.8522 23.8438 46.4628 23.1241 47.0733C22.5139 47.5742 21.8098 47.9813 21.1997 48.4822C19.9793 49.3902 18.8685 50.4077 17.8672 51.5192C15.6455 53.9456 14.5347 56.5756 14.2374 59.91C14.1435 61.5224 15.755 62.2425 16.9597 62.8374C18.1644 63.5418 19.5882 63.6514 20.9024 63.6514C21.716 63.7453 22.1227 63.0409 22.8268 62.7434C23.437 62.446 24.141 62.039 24.6417 61.632C25.2519 61.2249 25.6586 60.6144 26.2532 60.2231C26.8633 59.816 27.4735 59.5186 27.9742 59.002C29.2102 58.1567 29.8203 56.9356 30.8216 55.8242ZM20.7303 56.3408C20.3235 57.3583 19.8229 58.5637 19.0093 59.2681C18.5086 59.6752 17.5856 59.9726 17.3978 59.0646C17.1944 58.1567 17.4917 57.0452 17.6951 56.1372C17.9923 55.1197 18.3052 54.1178 18.8059 53.1003C19.7133 51.1748 23.1554 48.6544 23.1554 48.6544C22.4357 51.1748 21.7316 53.8047 20.7303 56.3408Z" fill="#FFB800"/>
<path d="M69.9354 69.5844C67.307 77.8813 66.3057 83.6421 64.0684 86.2721C63.0514 87.3836 62.6603 86.4756 62.4569 85.3641C62.0501 83.7517 61.4399 82.2332 61.0488 80.6208C60.5481 78.8988 60.1413 77.2864 60.0318 75.4705C59.9379 73.6546 60.0318 72.3396 59.8284 70.5237C59.8284 70.0227 59.625 69.3026 59.9223 68.8017C60.1257 68.3947 60.2196 64.8568 60.1257 64.0584C60.1257 62.5399 58.9053 60.9275 58.4047 59.6125C57.904 58.2975 56.9809 58.0001 55.6824 58.0001C54.5715 58.0001 53.2573 57.9062 52.5533 58.908C51.5363 60.5205 50.9418 62.2425 50.4255 63.9644C49.3146 67.5024 48.5011 70.9463 47.1869 74.3747C46.076 77.5056 44.4645 80.84 42.0395 83.0629C41.3354 83.6735 39.5206 85.4894 38.9104 84.0805C38.6131 83.4699 38.707 82.6716 38.4097 82.061C37.7057 80.5425 37.7057 78.8206 37.5962 77.2081C37.5023 75.2826 37.3928 73.2632 37.5023 71.3377C37.7057 69.3183 38.8165 67.5963 39.4267 65.7804C40.1307 63.7609 40.647 61.7415 42.149 60.223C43.0564 59.3151 43.7605 58.0001 45.2781 58.0001C45.7788 58.0001 46.3889 58.4071 46.8896 58.7045C47.7032 59.002 48.4072 59.409 49.3146 59.6125C50.1282 59.816 52.4437 60.0195 51.5363 58.3914C50.6289 57.0765 48.5011 56.779 47.093 56.2624C45.4815 55.6519 43.8544 55.2449 42.149 55.151C40.6314 55.057 38.3159 55.151 37.0955 56.0589C35.8908 56.9669 34.78 58.2819 33.9664 59.5029C32.8556 60.9118 31.7447 62.3364 30.9312 63.9488C29.4136 67.0797 28.8034 70.4141 28.7095 73.8581C28.6156 77.1925 29.7265 81.0435 31.7447 83.7674C33.763 86.6948 37.205 87.1018 40.5375 86.2877C42.149 85.8807 43.166 84.8788 44.3707 83.8613C44.8713 83.4543 45.4815 83.1569 45.9822 82.6403C46.5923 82.0297 46.9991 81.2313 47.3903 80.5112C47.8909 79.9007 48.2038 79.2902 48.4072 78.4918C48.6106 77.6778 49.1113 76.9733 49.4242 76.1593C49.518 75.8619 49.8309 73.8268 50.3316 73.9364C50.535 74.8443 50.7384 75.7523 50.8323 76.6602C50.8323 77.1612 52.0526 79.1806 52.1465 79.7911C52.2404 80.9026 53.1634 83.3291 53.4607 84.3466C54.4777 87.681 56.6993 91.8294 60.9393 91.6259C62.8637 91.532 64.2718 90.0135 65.1792 88.2915C70.0293 79.4937 71.2496 71.5099 71.6408 70.2889C71.7659 69.9132 71.8129 69.0208 71.7659 68.2381C71.3435 68.1755 70.9211 68.0816 70.5143 67.9563C70.1858 68.7391 69.9354 69.6314 69.9354 69.5844Z" fill="#FFB800"/>
<path d="M93.0751 84.2369C91.9643 85.3484 86.0972 91.5162 83.4688 91.2188C81.1532 90.9214 82.1546 86.4755 82.5613 85.0509C82.9681 83.6264 83.7817 82.2175 84.3762 80.8086C84.8769 79.6032 85.5809 78.2882 86.3945 77.1767C87.3019 75.8617 88.006 74.4528 88.7257 73.0283C89.4297 71.8072 90.3372 70.5079 90.4467 68.9894C90.5406 67.5805 90.0399 66.156 89.946 64.7471C89.8521 63.4321 89.946 62.7276 89.0386 61.7101C88.225 60.6925 87.0203 60.2855 85.9095 59.6907C84.5953 58.9862 83.4844 59.0801 82.2797 59.5967C79.5574 60.8178 77.0228 62.3206 74.5039 63.9487C73.7999 61.5222 72.1727 58.2817 69.1531 59.0958C66.5247 59.7063 65.32 62.4302 66.2274 64.9662C66.7281 66.2812 67.745 66.9856 69.0593 67.4866C69.5599 67.6588 70.0449 67.831 70.5456 67.9719C70.8898 67.1265 71.3122 66.3908 71.5782 67.0796C71.6877 67.3144 71.7659 67.7684 71.7972 68.2537C72.1258 68.3006 72.4543 68.3163 72.7985 68.285C76.2406 67.878 78.4622 65.3576 81.4818 64.0426C81.4818 65.0601 80.4648 66.3595 79.9642 67.2831C79.354 68.3946 78.8534 69.5999 78.2432 70.7114C77.1323 73.0439 76.1154 75.3608 75.3175 77.7872C73.8937 82.0296 73.0958 87.587 75.2236 91.7354C76.131 93.5513 77.9459 95.1794 79.9642 95.3672C82.3892 95.5707 84.4075 94.2558 86.2224 92.9408C88.1468 91.5319 89.9617 90.0134 91.5732 88.0879C92.8874 86.679 97.7375 81.6226 97.847 80.4015C98.1286 78.3821 93.9826 83.3289 93.0751 84.2369ZM70.749 65.5298C69.732 65.4359 69.028 64.5122 68.8246 63.6043C68.5273 62.3989 69.4348 61.7884 70.3422 61.5848C71.3592 61.2874 71.5469 62.9938 71.453 62.8998C71.5469 63.2129 72.251 65.7333 70.749 65.5298Z" fill="#FFB800"/>
<path d="M117.42 80.4954C116.403 82.0139 115.495 83.5324 113.993 84.6439C113.383 85.0509 112.382 85.9589 111.568 85.7554C110.958 85.5518 111.271 84.0334 111.271 83.6263C111.474 82.6088 111.975 81.3095 111.975 80.3859C111.975 79.5718 111.975 79.3683 111.881 78.5699C111.787 77.9594 111.678 77.255 111.678 76.5505C111.474 74.9381 111.177 73.2161 111.177 71.6037C111.177 70.0852 111.271 68.4728 111.271 66.9543C111.365 63.7138 111.474 60.5829 111.678 57.3581C111.772 55.9492 111.881 54.5246 111.881 53.1157C111.881 52.0982 111.881 50.6893 112.382 50.6893C115.918 50.3919 116.528 50.3919 116.418 48.6699C116.324 47.5584 114.494 48.1689 113.79 48.1689C112.679 48.1689 112.382 48.3724 112.382 48.1689C112.382 47.7619 112.288 47.0575 112.288 46.6504C112.288 44.8345 112.288 43.0186 112.695 41.2966C113.101 39.6842 113.195 37.2577 113.101 35.6297C113.008 34.2208 113.101 33.4067 112.397 32.0918C111.787 30.8707 110.582 29.9628 109.769 28.8513C109.065 27.6302 108.455 26.5188 107.14 25.9239C106.327 25.5169 105.419 25.2194 104.622 25.1099C103.01 25.1099 102.901 26.6283 102.4 27.8337C101.79 29.3522 101.289 30.9646 100.882 32.6866C100.069 36.115 99.7714 39.7625 99.3646 43.3004C99.2708 44.7093 99.2708 46.3374 98.9578 47.7463C98.6606 48.8577 98.0504 48.5603 97.2368 48.5603C96.2199 48.5603 94.7023 48.6542 93.701 48.7638C93.2942 48.7638 92.8874 48.7638 92.7935 49.2647C92.5901 50.3762 93.9043 50.1727 94.3111 50.2823C95.3281 50.3762 97.6436 50.2823 98.1443 50.2823C99.1612 50.4858 98.5511 52.6148 98.5511 53.3193C98.1443 60.5986 98.0504 67.9719 98.9578 75.2512C99.3646 78.5856 100.069 82.2331 101.383 85.364C102.494 87.8844 105.122 90.3108 108.048 90.6239C109.659 90.7178 111.474 89.9194 112.788 89.0115C113.899 88.307 114.603 86.8825 115.417 85.8806C116.434 84.5656 117.232 83.2506 117.936 81.7322C118.03 81.5443 118.155 81.3095 118.28 81.0903C118.061 80.7772 117.873 80.4485 117.701 80.0884C117.576 80.245 117.482 80.4172 117.42 80.4954Z" fill="#FFB800"/>
<path d="M160.773 71.6038C161.086 71.4003 162.995 70.2888 162.087 69.7879C161.383 69.3809 159.569 70.0853 158.849 70.3984C158.035 70.6019 157.128 71.1029 156.33 71.416C155.72 71.6195 154.703 72.23 154.609 71.322C154.405 69.7096 154.609 67.9876 154.202 66.3752C153.905 64.8567 153.295 63.4478 152.591 62.1328C151.48 59.9099 149.352 57.687 146.63 57.687C144.001 57.687 142.28 60.0195 140.763 61.8354C138.635 64.5593 136.413 67.1892 134.395 69.9288C132.471 72.4492 127.73 78.0222 127.026 77.6151C126.009 77.8186 128.434 68.3164 128.841 63.667C129.044 61.037 128.747 58.1096 126.822 56.0902C124.804 53.9612 122.583 55.4797 121.472 57.7026C120.862 58.8141 120.455 60.1291 119.954 61.3501C119.344 62.759 118.64 64.2775 118.139 65.796C117.122 68.332 116.528 70.9463 116.528 73.6859C116.528 75.6583 116.762 78.163 117.717 80.1355C118.296 79.2432 119.5 77.5212 119.672 77.9439C119.923 78.3666 118.968 79.932 118.296 81.1374C118.984 82.1236 119.907 82.875 121.19 83.2038C123.615 83.8143 126.447 82.9064 128.465 81.7949C130.89 80.3703 132.909 78.4605 134.723 76.2375C136.538 73.905 137.962 71.2907 139.667 68.8643C141.076 66.8449 142.593 64.8254 144.314 62.9938C144.721 62.4929 145.425 61.5693 146.035 61.4754C146.849 61.3814 146.536 63.9018 146.442 64.3088C146.145 67.7528 146.239 71.1811 146.035 74.6251C145.941 76.034 146.239 77.8656 145.534 79.071C144.924 80.386 143.516 81.4035 142.609 82.4054C140.591 84.8319 138.87 87.3522 137.352 90.0918C135.834 93.0192 134.833 96.0561 133.926 99.187C132.909 102.631 132.001 106.169 131.704 109.91C131.5 112.947 131.407 116.078 131.5 119.115C131.5 121.338 131.907 123.467 134.426 123.858C135.944 124.062 137.665 123.358 138.776 122.434C141.373 120.305 143.907 117.988 145.065 114.935C146.598 110.897 149.806 107.453 152.293 103.915C154.499 100.752 154.656 97.4963 155.141 93.7236C155.344 91.7981 155.235 89.8883 155.344 87.9628C155.438 87.1487 155.438 86.2408 155.548 85.4424C155.548 84.8319 155.657 79.885 155.548 79.071C155.548 78.163 155.454 77.349 155.344 76.4411C155.235 75.8305 155.031 75.1261 155.344 74.5155C156.22 72.5118 159.162 72.4022 160.773 71.6038ZM145.206 87.8845C145.003 89.7004 144.909 91.6259 144.705 93.5514C144.299 97.2928 143.391 101.128 143.282 104.979C143.282 104.979 143.078 108.721 142.061 110.646C140.841 112.869 140.043 115.906 138.525 118.019C137.508 119.24 134.786 121.354 133.472 119.334C132.862 118.426 133.175 117.111 133.175 116.094C133.175 114.685 133.175 113.166 133.268 111.742C133.566 108.815 134.285 105.981 134.88 103.257C135.584 100.533 136.601 97.9973 137.399 95.3673C138.916 90.4205 141.748 85.5676 145.488 81.9201C145.926 83.9396 145.519 85.8494 145.206 87.8845Z" fill="#FFB800"/>
<path d="M252.065 45.0066C252.472 44.7092 253.082 44.1926 253.176 43.6917C253.27 42.9872 252.268 42.9872 251.861 42.9872C250.14 42.7837 248.419 42.9872 246.714 43.0811C246.464 43.0968 246.213 43.1125 245.963 43.1125C245.947 44.0674 245.932 45.1319 245.916 46.306C246.558 46.2433 247.199 46.1807 247.825 46.1025C249.233 46.0242 250.954 45.8207 252.065 45.0066Z" fill="#FFB800"/>
<path d="M180.033 67.4709C179.235 67.2674 178.406 67.2674 177.811 67.0639C176.998 67.0639 176.184 67.0639 175.37 67.0639C174.557 66.8604 173.743 66.8604 173.133 66.8604C172.335 66.8604 171.725 66.8604 171.099 66.8604C170.708 66.8604 170.301 66.8604 169.879 66.8604C168.659 66.8604 167.845 67.2674 167.235 67.6744C166.828 68.2849 166.625 69.0989 166.625 70.32C166.828 70.9305 167.235 71.541 167.845 71.7446C168.252 71.9481 168.659 71.9481 168.659 71.9481C168.862 72.1516 169.05 72.1516 169.269 72.1516C169.472 72.1516 169.879 72.1516 170.067 72.3551C170.473 72.3551 171.084 72.3551 171.694 72.3551C172.914 72.5586 174.338 72.5586 175.762 72.5586C176.372 72.5586 176.982 72.5586 177.577 72.5586C178.202 72.5586 179 72.5586 179.407 72.5586C180.017 72.5586 180.627 72.3551 181.034 72.3551C181.441 72.3551 181.848 72.1516 182.051 72.1516C183.068 71.7446 183.475 71.134 183.678 70.727C183.882 70.1165 183.678 69.7095 183.678 69.7095C183.678 68.8954 182.865 68.2849 181.848 67.8779C181.253 67.6744 180.643 67.4709 180.033 67.4709Z" fill="#FFB800"/>
</g>
<defs>
<clipPath id="clip0">
<rect width="298" height="282" fill="white"/>
</clipPath>
</defs>
</svg>
