<svg width="47" height="46" viewBox="0 0 47 46" fill="none" xmlns="http://www.w3.org/2000/svg">
<g clip-path="url(#clip0)">
<path d="M46.01 23C46.01 35.71 35.72 46.01 23 46.01C10.3 46.01 0 35.71 0 23C0 10.29 10.3 -0.0200195 23 -0.0200195C35.71 -0.0200195 46.01 10.3 46.01 23Z" fill="url(#paint0_radial)"/>
<path fill-rule="evenodd" clip-rule="evenodd" d="M32.15 10.5898C26.06 10.5898 19.95 10.5898 13.86 10.5898C11.68 10.5898 10.56 11.7298 10.56 13.9098C10.56 16.9198 10.56 19.9498 10.56 22.9998C10.56 26.0198 10.56 29.0998 10.56 32.1598C10.56 34.2598 11.72 35.4198 13.75 35.4198C19.9 35.4198 26.02 35.4198 32.15 35.4198C34.27 35.4198 35.44 34.2598 35.44 32.1298C35.44 26.0298 35.44 19.9498 35.44 13.8398C35.45 11.7198 34.28 10.5898 32.15 10.5898ZM30.14 13.3898C32.61 13.3898 32.61 13.3898 32.61 15.8598C32.61 18.2698 32.61 18.2698 30.19 18.2698C27.75 18.2698 27.75 18.2698 27.75 15.8298C27.74 13.3898 27.74 13.3898 30.14 13.3898ZM23.02 18.1798C25.61 18.1798 27.84 20.4198 27.8 23.0098C27.78 25.6598 25.57 27.8598 22.93 27.8098C20.31 27.7498 18.1 25.5498 18.17 22.9398C18.24 20.3298 20.42 18.1798 23.02 18.1798ZM32.6 31.1098C32.58 32.2698 32.28 32.5998 31.12 32.5998C28.41 32.5998 25.69 32.5998 22.98 32.5998C20.29 32.5998 17.58 32.5998 14.86 32.5998C13.72 32.5998 13.4 32.2698 13.4 31.1098C13.4 28.1298 13.41 25.0798 13.36 22.0598C13.36 21.1998 13.6 21.0098 14.39 21.0398C15.53 21.1098 15.55 21.0698 15.42 22.1798C14.98 26.0298 17.64 29.7498 21.42 30.4898C25.32 31.2398 29.23 28.8998 30.3 25.1598C30.62 23.9898 30.72 22.7498 30.47 21.5898C30.38 21.1598 30.49 21.0798 30.88 21.0798C32.59 20.9498 32.59 20.9198 32.59 22.6998C32.6 25.4698 32.6 28.2998 32.6 31.1098Z" fill="#622199"/>
</g>
<defs>
<radialGradient id="paint0_radial" cx="0" cy="0" r="1" gradientUnits="userSpaceOnUse" gradientTransform="translate(23.0037 22.9986) scale(23.009)">
<stop stop-color="white"/>
<stop offset="1" stop-color="white"/>
</radialGradient>
<clipPath id="clip0">
<rect width="46.01" height="46" fill="white"/>
</clipPath>
</defs>
</svg>
