<svg width="106" height="206" viewBox="0 0 106 206" fill="none" xmlns="http://www.w3.org/2000/svg">
<path d="M57.6592 33.1735C56.5169 32.9562 55.3745 32.4302 54.3146 31.847C52.2654 30.8178 50.7462 29.0453 49.3683 27.2728C48.6853 26.2436 48.0729 25.283 47.6254 24.1737C47.4723 23.8078 47.3898 23.4304 46.9423 23.6591C46.4124 23.8764 45.8 24.1051 45.4231 24.5511C45.0463 24.917 44.8931 25.2944 44.6576 25.729C44.3514 26.175 44.0452 26.4723 43.8215 26.9068C43.2915 28.0847 43.2091 29.3426 43.056 30.5205C42.9029 31.7784 42.6791 32.9562 42.6791 34.2141C42.6085 35.5407 42.7616 36.7986 42.8322 38.1251C43.056 40.7781 43.2091 43.4426 43.7508 46.0271C44.057 47.3536 44.3632 48.6115 44.6694 49.8694C44.8932 50.8986 45.0462 52.0879 45.4349 53.1171C46.3535 55.2556 48.1789 57.2568 49.6981 59.0293C50.5342 59.9213 51.5235 59.9899 52.5834 59.4753C53.502 59.1093 53.9495 58.2974 54.2557 57.4054C55.245 55.0383 56.0811 52.6826 56.5404 50.1667C57.0704 47.4336 57.459 44.6319 57.8358 41.8188C58.0596 40.4122 58.2127 39.0171 58.4482 37.6105C58.5307 36.9472 58.6838 36.284 58.7544 35.6207C58.8251 35.1747 58.9782 34.3628 58.9782 34.3628C59.1902 33.3222 58.354 33.3222 57.6592 33.1735Z" fill="#FFB800"/>
<path d="M73.3105 1.24545C64.5368 -0.835815 55.822 -0.355522 47.484 3.04084C33.5639 8.71287 24.2838 21.3606 21.9166 35.1404C20.3503 44.2889 21.8342 53.9405 27.0631 62.3685C30.8434 68.4636 35.9428 73.2551 42.2787 76.8001C45.7646 78.7556 49.4508 80.2994 53.3842 81.0427C56.2342 81.5802 59.1195 81.706 61.993 82.0605C63.8184 82.2892 63.9009 82.1748 63.3356 83.7872C62.8881 85.0795 61.887 86.1087 61.1451 87.2293C61.4866 87.3323 64.9372 87.2065 64.9372 87.3208C64.9372 87.8926 64.9372 88.3843 64.9372 88.8646C64.9372 95.9775 64.8901 103.102 64.9608 110.215C64.9843 112.113 64.9843 113.931 63.7713 115.544C63.6653 115.692 63.6065 115.887 63.5711 116.058C63.1001 118.334 62.6761 120.61 62.1697 122.874C61.098 127.631 60.2383 132.446 58.2245 136.951C58.036 137.374 57.8594 137.809 57.7298 138.14C56.2224 137.226 56.6817 135.785 56.5875 134.504C56.5404 133.818 55.6689 133.109 56.5993 132.411C56.6464 132.377 56.5404 132.125 56.4697 132C55.1036 129.781 54.1261 127.3 51.8179 125.687C52.1947 125.344 52.501 125.058 52.8543 124.738C52.1359 124.738 51.335 124.967 50.8993 124.681C50.3929 124.338 50.1927 123.549 49.8629 122.954C49.8041 122.977 49.7452 123.011 49.6863 123.034C49.6627 123.469 49.6392 123.892 49.6156 124.463C47.378 123.457 45.1522 123.48 43.0206 124.338C41.3954 124.99 39.8762 125.882 38.3099 126.659C37.78 126.922 37.2265 127.162 36.6847 127.425C36.7083 127.494 36.7436 127.563 36.7672 127.631C37.2382 127.654 37.6975 127.677 38.3806 127.711C35.0242 130.662 35.3422 134.893 33.5757 138.426C34.9653 138.438 36.249 138.403 37.3913 138.003C38.5101 137.603 39.4876 136.837 40.524 136.231C40.0058 136.86 39.4405 137.409 38.7574 137.797C37.78 138.358 37.5798 138.964 38.2981 139.844C38.4159 139.982 38.463 140.176 38.5572 140.336C40.3591 143.435 44.8343 145.882 48.5439 144.453C50.0985 143.858 51.4999 142.852 53.0898 141.96C53.0662 142.417 53.2547 143.161 52.972 143.435C50.8404 145.482 48.6499 147.472 46.4241 149.427C44.9638 150.708 43.4446 151.92 41.9961 153.201C40.418 154.596 39.4405 154.608 37.3089 154.802C36.8967 154.836 36.3432 155.065 36.461 155.454C36.5199 155.625 36.6847 155.717 36.8025 155.854C38.5101 157.707 35.1302 156.22 35.3304 156.243C34.082 156.094 32.9633 156.552 33.1752 158.095C33.2341 158.541 33.3637 158.93 33.5521 159.273C33.8583 158.759 34.1645 158.244 34.4707 157.741C35.3304 157.993 36.1312 158.221 37.0969 158.496C36.7436 159.285 36.3903 160.085 36.037 160.886C36.8732 160.977 37.7446 160.794 38.4866 160.325C43.2091 157.341 47.7313 154.07 52.3478 150.925C52.4421 150.868 52.5363 150.822 52.7836 150.685C52.8425 151.143 52.9367 151.531 52.9367 151.92C52.9485 153.716 52.972 155.511 52.9249 157.318C52.9131 157.855 52.7718 158.427 52.5716 158.93C51.8179 160.84 51.0995 162.773 50.2045 164.625C49.7099 165.654 49.3801 166.443 50.7227 166.947C49.0739 170.046 47.4369 173.042 45.8824 176.072C45.4702 176.884 44.846 177.284 44.0217 177.582C43.2444 177.868 42.5378 178.291 41.6663 178.725C43.1149 180.715 44.952 181.824 47.2014 182.293C48.0493 182.465 48.1435 181.733 48.2849 181.15C48.5439 180.075 48.5911 178.874 49.1446 177.959C50.6873 175.432 52.4774 173.053 54.0908 170.572C54.7739 169.52 55.4098 168.811 56.6935 169.931C58.2833 167.335 59.8026 164.865 61.416 162.235C63.1825 164.74 64.8077 167.049 66.4329 169.359C67.1513 169.108 67.7872 168.239 68.3172 169.405C69.9659 173.087 71.6382 176.77 73.287 180.452C73.6756 181.332 74.3587 181.881 75.289 181.881C77.032 181.881 78.6336 181.344 79.9173 180.155C80.6828 179.434 80.5297 178.474 79.5758 178.073C78.9163 177.799 78.1861 177.639 77.4795 177.547C76.3254 177.387 75.6777 176.838 75.3361 175.706C74.606 173.202 73.8052 170.697 72.8748 168.262C72.439 167.13 72.3684 166.386 73.6521 165.872C73.9818 165.734 74.2527 165.449 74.7473 165.083C72.7452 162.029 70.755 159.01 68.8 155.957C68.5409 155.557 68.482 155.019 68.4232 154.539C68.2583 152.995 68.3996 151.36 67.9403 149.908C67.1866 147.575 66.0325 145.368 65.0786 143.103C64.6546 142.097 64.0069 141.056 64.0186 140.039C64.0304 138.175 64.6781 136.379 64.7253 134.458C64.8312 130.09 65.3259 125.721 65.6792 121.353C65.7027 121.113 65.9383 120.884 66.0678 120.655C66.268 120.884 66.5742 121.09 66.6331 121.342C66.8215 122.222 67.0217 123.114 67.0217 124.006C67.0217 127.78 66.9511 131.554 66.9275 135.339C66.9275 135.647 67.163 135.956 67.2926 136.265C67.4692 135.979 67.7872 135.716 67.8108 135.419C67.9992 132.731 68.0463 130.033 68.3172 127.357C68.5763 124.795 66.9628 122.314 68.2583 119.649C68.6234 118.894 68.8707 117.385 67.9285 116.367C67.8697 116.299 67.9168 116.081 67.9756 115.978C68.3878 115.258 67.8697 115.086 67.3515 114.858C67.0688 114.732 66.6449 114.537 66.5978 114.309C66.3387 112.891 66.0207 111.461 66.0089 110.043C65.95 103.342 65.9854 96.6408 65.9854 89.9281C65.9854 86.7491 65.9854 86.7834 69.3182 86.5432C70.0012 86.4975 70.6608 86.0401 71.332 85.777C70.8492 85.3539 70.3781 84.9194 69.8717 84.5191C69.5184 84.2332 69.0473 84.0731 68.7529 83.7529C68.3172 83.2955 67.9874 82.7581 67.4692 82.0605C74.8062 81.2829 81.2363 79.0072 87.054 75.1534C92.8247 71.3339 97.3705 66.4395 100.668 60.4473C104.001 54.3865 105.614 47.9139 105.602 41.064C105.532 22.6528 92.754 5.86542 73.3105 1.24545ZM93.3311 44.9178C93.1073 47.5022 93.178 50.0181 92.9542 52.5225C92.648 55.0383 92.1887 57.6227 91.7294 60.0585C91.5763 61.0877 91.1995 62.0483 90.8226 63.0089C90.5164 63.9008 89.9865 64.7814 88.9972 64.93C87.9255 64.9986 87.1011 64.6327 86.1001 64.4154C85.0402 64.1982 84.1216 63.6721 83.3679 62.8602C82.6849 61.9682 82.2256 60.939 81.6132 59.9784C81.0008 58.8006 80.3295 57.6113 79.7171 56.4334C78.5748 54.1463 77.5855 51.7791 76.6787 49.4234C75.6894 47.0563 74.6295 44.7692 73.6403 42.4134C73.0279 40.9382 72.4979 39.383 71.968 37.9078C71.6618 37.1645 71.438 36.4326 71.1318 35.6893C71.0612 35.392 70.9787 35.0947 70.9081 34.8774C70.8374 34.7287 70.755 34.6601 70.6843 34.6601C70.3781 34.5115 70.4606 39.7604 70.3781 42.3448C70.3075 43.5227 70.1544 44.712 70.1544 45.8898C70.1544 47.1478 70.2368 48.4743 70.1544 49.7322C69.9306 52.248 69.9306 58.812 69.3182 61.1792C69.012 62.2884 68.7882 62.5857 68.1758 63.4663C67.799 64.1295 67.0335 64.4269 66.7273 63.5349C66.0443 61.6023 66.2209 43.3168 66.3504 33.8482C65.5025 33.9283 64.6546 33.974 63.8302 33.9283C62.9116 33.9283 62.311 34.1455 62.1579 35.0375C62.0872 35.8494 62.1579 36.7414 62.0872 37.5533C61.7811 42.8709 60.4856 48.0397 59.1902 53.14C58.5778 55.5071 58.0478 58.1602 56.7524 60.23C56.2224 61.0419 55.6925 62.0025 54.8563 62.4485C53.714 63.0432 52.654 63.775 51.3586 64.221C49.0032 64.9643 46.4124 65.2617 44.057 64.667C41.7016 64.0724 39.8762 62.6772 38.3452 60.9047C36.7554 59.0522 35.3068 57.1424 34.1645 55.0726C32.9397 52.7054 32.3391 50.3497 32.1153 47.7653C31.8091 45.1808 31.5854 42.5163 31.5854 39.9319C31.5854 38.674 31.656 37.4161 31.7385 36.1696C31.8091 34.8431 32.1978 33.7338 32.6571 32.4759C33.4932 30.1088 34.4 27.9703 35.931 25.8319C37.2265 24.0594 38.5219 22.2183 40.418 20.9603C41.4897 20.2971 42.7733 19.8511 44.0688 19.6338C44.7518 19.5652 45.4349 19.5652 46.1179 19.6338C46.7303 19.7024 47.4016 20.0798 47.9433 19.9998C48.4733 19.8511 48.7795 19.4051 49.1681 19.1078C49.6981 18.6618 50.3105 18.3645 50.8404 18.0671C52.1359 17.5525 53.502 17.3238 54.8681 17.4725C55.4805 17.4725 56.0929 17.6898 56.7641 17.7698C57.3765 17.8384 57.9889 17.8384 58.5895 18.0671C59.8143 18.5817 60.0381 19.8397 60.3443 20.9489C60.7211 22.2068 61.4042 23.4647 61.7104 24.7913C62.0166 26.4151 62.2404 29.6628 62.1697 29.9601C62.1697 29.8915 61.7104 31.9499 63.0058 31.8127C64.1129 31.6183 65.267 31.5954 66.3976 31.5382C66.4093 30.5433 66.4211 29.72 66.4329 29.1482C66.4329 26.4951 66.4329 23.9107 66.3622 21.2462C66.3622 20.6516 66.3622 20.137 66.2798 19.5538C66.2798 19.1878 66.1267 18.6618 66.2798 18.2959C66.586 17.7012 67.6459 17.6326 68.2583 17.6326C68.6351 17.6326 68.8707 17.7813 69.2475 17.8499C69.7775 17.9985 70.3192 17.9185 70.9198 17.9185C72.0622 18.0671 73.0514 18.9477 73.9583 19.691C75.6306 21.0976 77.456 22.3555 78.6807 24.1966C79.9762 26.1864 80.1175 28.6336 80.5768 30.9207C80.8006 32.0986 81.1892 33.1392 81.6367 34.2485C82.096 35.3577 82.3198 36.5356 82.7084 37.7249C83.0853 38.6854 83.627 39.646 83.9332 40.6752C84.31 41.7845 84.9931 42.9623 85.4524 44.0716C85.9117 45.1808 86.371 46.2901 86.8185 47.3993C87.0423 47.9139 87.1954 48.4285 87.2778 49.0232C87.3485 49.5378 87.2778 50.2811 87.584 50.7271C87.9609 51.3217 87.8902 52.2823 88.114 52.9456C88.3377 53.6088 88.4908 54.4208 88.9501 55.084C89.2563 52.5682 89.1856 49.9838 89.2563 47.4794C89.4094 44.8263 89.4801 42.1618 89.5625 39.5088C89.7863 34.3399 90.0218 29.1025 90.0924 23.9221C90.0924 22.6642 90.1631 21.4864 90.2456 20.2285C90.2456 19.6338 90.2456 19.1192 90.1749 18.5246C90.1749 18.3073 89.9511 17.7813 90.2456 17.564C91.1641 17.0494 92.071 18.1586 92.2947 18.8219C92.6716 19.9311 92.8247 21.109 92.9778 22.2869C93.1309 23.4647 93.1309 24.654 93.284 25.8319C93.4371 27.0898 93.4371 35.8037 93.5077 37.0616C93.4842 39.6803 93.5666 42.3334 93.3311 44.9178Z" fill="#FFB800"/>
<path d="M58.354 23.499C58.1303 22.3212 57.9772 20.9146 57.2117 19.8854C55.4687 17.747 51.9592 19.1421 51.1231 21.3606C49.8394 24.7569 53.0309 27.1241 55.1507 29.2625C55.9869 30.0745 57.4354 31.2523 58.7191 31.2523C59.7908 31.2523 59.3315 28.7365 59.3315 28.8166C59.3433 28.8166 58.7309 25.2029 58.354 23.499Z" fill="#FFB800"/>
<path d="M33.5521 159.239C32.5864 160.874 31.6089 162.51 30.6314 164.145C29.3478 166.272 28.0405 168.376 26.7098 170.537C25.8029 169.794 25.5556 169.291 26.2858 168.433C27.1926 167.358 27.7932 165.975 27.4164 164.568C27.0395 163.196 26.4625 161.812 25.697 160.6C24.9079 159.342 23.742 158.336 22.317 158.553C22.8234 158.244 23.9658 157.935 24.1424 157.352C24.4486 156.334 23.318 155.797 22.5172 155.328C20.1148 153.91 17.6299 154.082 15.0861 154.996C11.8828 156.14 9.59809 159.433 9.82185 162.704C9.85718 163.264 9.86895 163.825 9.85718 164.385C9.83362 165.7 9.1859 166.672 7.98467 167.244C7.23096 167.598 6.43013 167.861 5.65286 168.182C4.94626 168.479 4.73428 168.902 5.24068 169.565C7.92579 173.099 12.8014 174.849 16.9704 172.15C17.1941 172.001 17.571 171.91 17.8065 171.99C19.2197 172.47 20.5976 172.436 21.9873 171.932C22.1875 171.852 22.5054 172.058 22.7645 172.138C22.6468 172.367 22.5879 172.687 22.3877 172.813C21.6222 173.305 20.8449 173.785 20.0323 174.185C16.1813 176.084 12.3185 177.982 8.43219 179.812C7.16029 180.406 6.80699 180.166 6.30059 178.874C6.11216 178.394 5.87662 177.913 5.58221 177.479C5.47621 177.319 5.14646 177.307 4.9227 177.227C4.86381 177.422 4.7225 177.65 4.7696 177.822C4.88737 178.302 5.08758 178.759 5.25246 179.228C4.5223 178.782 4.03944 178.165 3.46238 177.662C3.20329 177.433 2.74399 177.422 2.36714 177.319C2.40247 177.685 2.30825 178.131 2.4849 178.416C2.86176 178.988 3.39172 179.469 4.07478 180.235C2.87354 179.571 1.96673 179.034 1.03636 178.565C0.836158 178.462 0.518187 178.565 0.247321 178.577C0.317981 178.84 0.317982 179.137 0.459303 179.343C0.647732 179.606 0.930371 179.823 1.20124 180.017C1.75475 180.406 2.32003 180.772 2.88532 181.15C2.86177 181.184 2.83821 181.218 2.81466 181.252C1.95496 181.001 1.08347 180.761 0.223762 180.509C0.153101 180.635 0.0824375 180.761 0 180.898C0.282643 181.195 0.518185 181.63 0.871489 181.778C1.70764 182.144 2.60267 182.362 3.46238 182.682C3.957 182.865 4.42808 183.116 5.04047 183.391C4.49874 183.963 4.05122 184.306 3.80391 184.74C3.62726 185.049 3.70969 185.495 3.67436 185.884C4.05122 185.815 4.46341 185.827 4.78138 185.655C5.13469 185.461 5.382 185.095 5.68819 184.809C6.9012 183.654 8.04356 182.568 9.83363 182.053C12.8014 181.195 15.6396 179.926 18.5367 178.828C19.5024 178.462 20.4798 178.096 21.6575 177.662C21.3749 179.217 21.0922 180.498 20.9391 181.778C20.7743 183.162 20.5387 184.42 19.0313 185.083C18.4896 185.324 18.0303 185.747 17.5356 186.101C16.2284 187.039 14.9212 187.988 13.5669 188.971C13.8848 189.417 14.0733 189.795 14.3559 190.081C14.9448 190.687 14.8976 191.121 14.2853 191.75C12.7307 193.34 11.2939 195.044 9.73941 196.633C9.43321 196.942 8.82082 197.068 8.34975 197.091C7.67847 197.114 7.0072 196.965 6.33592 196.885C6.27704 197.011 6.21815 197.125 6.15927 197.251C6.99542 198.532 8.14954 199.515 9.57454 200.19C10.2223 200.498 10.4931 199.961 10.7758 199.492C11.1408 198.863 11.4942 198.177 12.0241 197.697C13.4844 196.382 15.0743 195.215 16.5346 193.9C17.1941 193.306 17.6416 193.408 18.3482 193.786C20.6329 195.032 23.1296 195.661 25.7441 195.638C28.1583 195.616 28.2761 195.513 28.9238 197.765C29.6186 200.178 30.9965 202.454 30.6903 205.107C30.6668 205.359 31.0436 205.85 31.3027 205.907C32.8337 206.216 34.3058 205.942 36.0017 205.256C35.2833 204.615 34.7886 204.043 34.1763 203.655C33.3872 203.174 32.9986 202.523 32.8219 201.676C32.3626 199.366 31.9033 197.068 31.4205 194.655C31.8798 194.483 32.3273 194.232 32.7984 194.152C33.7994 194.003 33.9525 193.569 33.611 192.677C32.8337 190.698 32.1271 188.686 31.4087 186.673C31.1261 185.872 30.7374 185.06 30.7021 184.249C30.549 180.955 30.5137 177.662 30.4666 174.368C30.4548 173.854 30.5372 173.305 30.7374 172.847C32.2095 169.451 33.7287 166.066 35.2244 162.681C35.4953 162.075 35.7543 161.48 36.0252 160.874C35.0124 160.737 34.0703 160.2 33.5521 159.239Z" fill="#FFB800"/>
<path d="M71.3921 32.8772C71.6983 32.6599 72.1576 32.2826 72.2283 31.9166C72.2989 31.402 71.5452 31.402 71.239 31.402C69.9435 31.2534 68.6481 31.402 67.3644 31.4707C67.176 31.4821 66.9876 31.4935 66.7992 31.4935C66.7874 32.1911 66.7756 32.9687 66.7638 33.8264C67.2467 33.7806 67.7295 33.7349 68.2006 33.6777C69.2605 33.6205 70.5559 33.4719 71.3921 32.8772Z" fill="#FFB800"/>
</svg>
