<svg width="192" height="106" viewBox="0 0 192 106" fill="none" xmlns="http://www.w3.org/2000/svg">
<path d="M129.247 67.1771C130.472 61.4479 133.946 57.9257 139.976 56.8165C133.946 55.6958 130.46 52.1737 129.247 46.4216C128.105 52.2766 124.489 55.6158 118.636 56.8394C124.595 58.0287 128.046 61.4136 129.247 67.1771Z" fill="#FFB800"/>
<path d="M130.354 27.9646C131.225 23.905 133.675 21.4235 137.938 20.6344C133.675 19.8339 131.214 17.3524 130.354 13.2813C129.541 17.421 126.986 19.7882 122.852 20.6458C127.068 21.4921 129.506 23.8935 130.354 27.9646Z" fill="#FFB800"/>
<path d="M133.369 45.3695C135.748 46.0899 137.338 47.5079 137.915 49.9323C138.562 47.5422 140.164 46.1128 142.508 45.3466C139.964 44.7634 138.668 43.1396 137.915 40.7038C137.243 43.2425 135.866 44.7863 133.369 45.3695Z" fill="#FFB800"/>
<path d="M23.8567 23.7792C24.5398 22.9673 24.9991 22.0067 25.6821 21.1948C26.1414 20.6802 26.2945 20.2342 26.4476 19.5709C26.5183 19.0563 26.8245 18.759 27.1307 18.313C27.6606 17.5011 27.7431 16.3232 27.9668 15.3626C28.0375 15.0653 28.1199 14.6994 28.1199 14.3334C28.1199 13.9675 28.3437 13.9675 28.7323 13.8188C29.2623 13.5215 29.7922 13.2242 30.4046 13.0069C31.4645 12.4923 32.4538 11.8977 33.5961 11.5317C34.4323 11.1658 35.7984 11.0171 36.4814 10.2738C36.6345 10.0565 36.7876 9.61054 36.4108 9.53049C36.0339 9.38183 35.5746 9.5991 35.2684 9.67915C32.76 10.4225 30.5459 11.6003 28.273 12.7096C28.273 11.8976 28.2023 11.0857 28.3437 10.1938C28.4143 9.53049 28.4968 8.86723 28.4143 8.20397C28.2612 7.02611 27.4251 5.98547 26.6596 5.10493C25.0579 3.11515 22.7026 1.34264 20.1941 0.599327C17.5326 -0.143984 15.0241 1.11393 13.1163 2.88644C12.0564 3.91564 11.1378 5.02488 10.231 6.13413C9.46547 7.09472 8.78242 8.12392 8.40556 9.31322C8.25246 8.71857 8.25246 7.83803 8.1818 7.17477C8.11114 6.58012 7.95804 6.2828 8.02871 5.61953C8.09937 4.59033 7.87561 3.5497 7.11012 2.73777C6.34462 1.99446 5.28471 1.55991 4.2248 1.55991C3.38865 1.4913 1.9401 1.55991 1.78701 2.5205C1.25705 4.88766 1.48081 7.32343 1.10395 9.67915C0.2678 14.7794 0.797756 20.0855 0.880193 25.1858C0.950854 30.4347 1.03329 32.1271 1.10395 37.3761C1.10395 39.8919 1.03329 42.4763 1.32771 44.9807C1.39837 45.724 1.63391 49.269 2.92935 49.269C3.54175 49.269 4.0717 48.2398 4.29546 47.8625C4.82542 47.0505 5.35537 46.1586 5.96777 45.4953C6.34462 45.1294 6.34462 44.6033 6.65082 44.1688C6.87458 43.7228 6.95702 43.2082 7.02768 42.7622C7.18078 41.6529 7.71073 40.6237 7.94627 39.5145C8.17003 38.3366 8.09937 37.2274 8.32313 36.0495C8.54688 34.8717 8.85308 35.3062 8.93552 34.0597C9.08862 31.7726 9.46547 31.5439 9.54791 29.1882C9.70101 26.6038 9.77167 24.0193 9.47725 21.4349C9.25349 19.0677 8.71176 16.4833 9.01796 14.1276C9.17105 12.8697 9.78345 11.8405 10.5372 10.8113C11.2202 9.85069 11.7502 8.8901 12.3626 7.92951C13.0456 6.96893 14.0349 6.08839 14.9535 5.34508C15.7896 4.68182 16.6258 3.93851 17.615 3.49252C20.889 1.93729 20.5828 6.96893 20.4297 8.74144C20.2766 11.2573 19.5935 13.613 18.828 15.9801C18.6749 16.4947 18.6043 16.9407 18.0625 17.3867C17.6032 17.7527 17.0733 18.05 16.614 18.4159C15.6954 19.0792 14.8592 19.8225 14.1055 20.6344C12.4332 22.4069 11.5971 24.3281 11.3733 26.7639C11.3027 27.9417 12.5157 28.4678 13.4225 28.9023C14.3293 29.4169 15.401 29.497 16.3902 29.497C17.0026 29.5656 17.3088 29.051 17.8388 28.8337C18.2981 28.6164 18.828 28.3191 19.2049 28.0218C19.6642 27.7244 19.9704 27.2785 20.4179 26.9926C20.8772 26.6953 21.3365 26.478 21.7133 26.1006C22.6437 25.4831 23.103 24.5911 23.8567 23.7792ZM16.2607 24.1566C15.9545 24.8999 15.5776 25.7804 14.9652 26.295C14.5884 26.5923 13.8935 26.8096 13.7522 26.1463C13.5991 25.4831 13.8229 24.6712 13.976 24.0079C14.1997 23.2646 14.4353 22.5327 14.8121 21.7894C15.4952 20.3828 18.0861 18.5417 18.0861 18.5417C17.5444 20.3828 17.0144 22.304 16.2607 24.1566Z" fill="#FFB800"/>
<path d="M53.2985 33.831C51.32 39.8919 50.5663 44.1002 48.8822 46.0213C48.1167 46.8333 47.8223 46.17 47.6692 45.3581C47.363 44.1802 46.9037 43.071 46.6093 41.8931C46.2324 40.6352 45.9262 39.4573 45.8438 38.1308C45.7731 36.8043 45.8438 35.8437 45.6907 34.5172C45.6907 34.1512 45.5376 33.6252 45.7614 33.2593C45.9144 32.9619 45.9851 30.3775 45.9144 29.7943C45.9144 28.685 44.9959 27.5072 44.619 26.5466C44.2421 25.586 43.5473 25.3687 42.5698 25.3687C41.7337 25.3687 40.7444 25.3001 40.2145 26.032C39.449 27.2099 39.0015 28.4678 38.6128 29.7257C37.7767 32.3101 37.1643 34.8259 36.175 37.3303C35.3389 39.6174 34.1259 42.0532 32.3005 43.677C31.7705 44.123 30.4044 45.4496 29.9451 44.4204C29.7214 43.9744 29.792 43.3912 29.5683 42.9452C29.0383 41.8359 29.0383 40.578 28.9559 39.4002C28.8852 37.9936 28.8028 36.5184 28.8852 35.1118C29.0383 33.6366 29.8745 32.3787 30.3338 31.0522C30.8637 29.577 31.2523 28.1018 32.3829 26.9926C33.066 26.3293 33.5959 25.3687 34.7383 25.3687C35.1151 25.3687 35.5744 25.6661 35.9513 25.8833C36.5637 26.1006 37.0936 26.3979 37.7767 26.5466C38.3891 26.6953 40.132 26.8439 39.449 25.6546C38.7659 24.694 37.1643 24.4768 36.1044 24.0994C34.8914 23.6534 33.6666 23.3561 32.3829 23.2875C31.2406 23.2189 29.4976 23.2875 28.579 23.9507C27.6722 24.614 26.836 25.5746 26.2237 26.4665C25.3875 27.4957 24.5514 28.5364 23.939 29.7142C22.7966 32.0014 22.3373 34.4371 22.2667 36.9529C22.196 39.3887 23.0321 42.2019 24.5514 44.1916C26.0706 46.3301 28.6615 46.6274 31.1699 46.0328C32.3829 45.7354 33.1484 45.0036 34.0552 44.2603C34.4321 43.9629 34.8914 43.7457 35.2682 43.3683C35.7275 42.9223 36.0337 42.3391 36.3281 41.8131C36.705 41.3671 36.9405 40.9211 37.0936 40.3379C37.2467 39.7432 37.6236 39.2286 37.8591 38.634C37.9298 38.4167 38.1653 36.9301 38.5422 37.0101C38.6953 37.6734 38.8484 38.3366 38.919 38.9999C38.919 39.3658 39.8376 40.841 39.9083 41.287C39.979 42.0989 40.6738 43.8715 40.8975 44.6148C41.663 47.0505 43.3353 50.081 46.5268 49.9323C47.9754 49.8637 49.0353 48.7544 49.7184 47.4965C53.3692 41.0697 54.2877 35.2376 54.5822 34.3456C54.6764 34.0712 54.7117 33.4194 54.6764 32.8476C54.3584 32.8018 54.0404 32.7332 53.7342 32.6417C53.4869 33.2135 53.2985 33.8654 53.2985 33.831Z" fill="#FFB800"/>
<path d="M70.7164 44.5347C69.8802 45.3466 65.4639 49.8522 63.4854 49.6349C61.7425 49.4177 62.4962 46.17 62.8024 45.1293C63.1086 44.0887 63.721 43.0595 64.1685 42.0303C64.5453 41.1498 65.0753 40.1892 65.6877 39.3773C66.3708 38.4167 66.9007 37.3875 67.4424 36.3468C67.9724 35.4549 68.6554 34.5057 68.7379 33.3965C68.8085 32.3673 68.4317 31.3266 68.361 30.2974C68.2904 29.3368 68.361 28.8222 67.678 28.0789C67.0656 27.3356 66.1588 27.0383 65.3226 26.6037C64.3334 26.0891 63.4972 26.1578 62.5904 26.5351C60.5412 27.4271 58.6334 28.5249 56.7373 29.7142C56.2074 27.9417 54.9826 25.5745 52.7097 26.1692C50.7312 26.6152 49.8244 28.605 50.5074 30.4575C50.8843 31.4181 51.6498 31.9327 52.639 32.2986C53.0159 32.4244 53.3809 32.5502 53.7578 32.6531C54.0169 32.0356 54.3349 31.4982 54.5351 32.0013C54.6175 32.1729 54.6764 32.5045 54.6999 32.859C54.9473 32.8933 55.1946 32.9047 55.4537 32.8819C58.0446 32.5845 59.7169 30.7434 61.9898 29.7828C61.9898 30.5261 61.2243 31.4753 60.8474 32.15C60.3881 32.9619 60.0113 33.8424 59.552 34.6544C58.7158 36.3583 57.9503 38.0507 57.3497 39.8232C56.278 42.9223 55.6774 46.9819 57.2791 50.0123C57.9621 51.3388 59.3282 52.5281 60.8474 52.6654C62.6728 52.814 64.192 51.8534 65.5582 50.8929C67.0067 49.8637 68.3728 48.7544 69.5858 47.3478C70.5751 46.3186 74.2259 42.625 74.3083 41.733C74.5203 40.2578 71.3994 43.8714 70.7164 44.5347ZM53.9109 30.8692C53.1454 30.8006 52.6155 30.1259 52.4624 29.4626C52.2386 28.5821 52.9217 28.1361 53.6047 27.9874C54.3702 27.7702 54.5115 29.0166 54.4409 28.948C54.5115 29.1767 55.0415 31.0179 53.9109 30.8692Z" fill="#FFB800"/>
<path d="M89.0411 41.8016C88.2756 42.9109 87.5925 44.0201 86.4619 44.832C86.0026 45.1294 85.2489 45.7926 84.6365 45.644C84.1772 45.4953 84.4128 44.3861 84.4128 44.0887C84.5659 43.3454 84.9427 42.3963 84.9427 41.7216C84.9427 41.1269 84.9427 40.9783 84.8721 40.3951C84.8014 39.9491 84.719 39.4345 84.719 38.9199C84.5659 37.742 84.3421 36.4841 84.3421 35.3062C84.3421 34.197 84.4128 33.0191 84.4128 31.9099C84.4834 29.5427 84.5659 27.2556 84.719 24.8999C84.7896 23.8707 84.8721 22.83 84.8721 21.8009C84.8721 21.0575 84.8721 20.0283 85.2489 20.0283C87.9105 19.8111 88.3698 19.8111 88.2873 18.5532C88.2167 17.7412 86.8388 18.1872 86.3088 18.1872C85.4727 18.1872 85.2489 18.3359 85.2489 18.1872C85.2489 17.8899 85.1783 17.3753 85.1783 17.078C85.1783 15.7514 85.1783 14.4249 85.4845 13.167C85.7907 11.9891 85.8613 10.2166 85.7907 9.02734C85.72 7.99814 85.7907 7.40349 85.2607 6.44291C84.8014 5.55093 83.8946 4.88767 83.2822 4.07575C82.7523 3.18377 82.293 2.37185 81.3037 1.9373C80.6913 1.63997 80.0083 1.4227 79.4076 1.34265C78.1946 1.34265 78.1122 2.4519 77.7353 3.33244C77.276 4.44169 76.8992 5.61955 76.593 6.87746C75.9806 9.38184 75.7568 12.0463 75.4506 14.6308C75.38 15.66 75.38 16.8493 75.1444 17.8785C74.9207 18.6904 74.4614 18.4731 73.849 18.4731C73.0835 18.4731 71.9412 18.5417 71.1874 18.6218C70.8812 18.6218 70.5751 18.6218 70.5044 18.9877C70.3513 19.7996 71.3405 19.651 71.6467 19.731C72.4122 19.7996 74.1552 19.731 74.5321 19.731C75.2975 19.8797 74.8382 21.4349 74.8382 21.9495C74.5321 27.267 74.4614 32.6532 75.1444 37.9707C75.4506 40.4065 75.9806 43.071 76.9698 45.3581C77.806 47.1992 79.7845 48.9717 81.9868 49.2004C83.1998 49.269 84.5659 48.6858 85.5551 48.0226C86.3913 47.508 86.9212 46.4673 87.5336 45.7355C88.2991 44.7749 88.8997 43.8143 89.4297 42.705C89.5003 42.5678 89.5946 42.3963 89.6888 42.2362C89.5239 42.0075 89.3826 41.7673 89.253 41.5043C89.1588 41.6187 89.0882 41.7444 89.0411 41.8016Z" fill="#FFB800"/>
<path d="M121.675 35.3062C121.91 35.1576 123.347 34.3456 122.664 33.9797C122.134 33.6824 120.768 34.197 120.226 34.4257C119.614 34.5744 118.931 34.9403 118.33 35.169C117.871 35.3177 117.105 35.7636 117.034 35.1004C116.881 33.9225 117.034 32.6646 116.728 31.4868C116.505 30.3775 116.045 29.3483 115.515 28.3877C114.679 26.7639 113.077 25.14 111.028 25.14C109.05 25.14 107.754 26.8439 106.612 28.1704C105.01 30.1602 103.338 32.0814 101.819 34.0826C100.37 35.9237 96.802 39.9948 96.272 39.6975C95.5065 39.8461 97.3319 32.9048 97.6381 29.5084C97.7912 27.5872 97.5674 25.4488 96.1189 23.9736C94.5997 22.4184 92.9274 23.5276 92.0912 25.1515C91.6319 25.9634 91.3257 26.924 90.9489 27.8159C90.4896 28.8451 89.9596 29.9544 89.5828 31.0636C88.8173 32.9162 88.3698 34.8259 88.3698 36.8272C88.3698 38.268 88.5464 40.0977 89.2648 41.5386C89.7006 40.8868 90.6074 39.6289 90.7369 39.9376C90.9253 40.2464 90.207 41.3899 89.7006 42.2705C90.2187 42.9909 90.9136 43.5398 91.8793 43.78C93.7047 44.226 95.8363 43.5627 97.3555 42.7508C99.1809 41.7101 100.7 40.315 102.066 38.6911C103.432 36.9873 104.504 35.0775 105.788 33.305C106.848 31.8298 107.99 30.3546 109.285 29.0167C109.592 28.6507 110.121 27.976 110.581 27.9074C111.193 27.8388 110.958 29.6799 110.887 29.9773C110.663 32.4931 110.734 34.9975 110.581 37.5133C110.51 38.5425 110.734 39.8804 110.204 40.761C109.745 41.7216 108.685 42.4649 108.002 43.1968C106.482 44.9693 105.187 46.8104 104.045 48.8116C102.902 50.9501 102.149 53.1686 101.466 55.4557C100.7 57.9715 100.017 60.5559 99.7933 63.289C99.6402 65.5075 99.5695 67.7946 99.6402 70.0131C99.6402 71.637 99.9464 73.1922 101.842 73.4781C102.985 73.6267 104.28 73.1121 105.116 72.4374C107.071 70.8822 108.979 69.1897 109.851 66.9598C111.005 64.0094 113.419 61.4936 115.292 58.9092C116.952 56.5992 117.07 54.2206 117.435 51.4647C117.588 50.0581 117.506 48.6629 117.588 47.2564C117.659 46.6617 117.659 45.9985 117.741 45.4153C117.741 44.9693 117.824 41.3556 117.741 40.761C117.741 40.0977 117.67 39.5031 117.588 38.8398C117.506 38.3938 117.352 37.8792 117.588 37.4332C118.247 35.9695 120.462 35.8894 121.675 35.3062ZM109.957 47.1992C109.804 48.5257 109.733 49.9323 109.58 51.3389C109.274 54.072 108.591 56.8737 108.508 59.6868C108.508 59.6868 108.355 62.4199 107.589 63.8265C106.671 65.4503 106.07 67.6688 104.928 69.2126C104.162 70.1046 102.113 71.6484 101.124 70.1732C100.665 69.5099 100.9 68.5494 100.9 67.8061C100.9 66.7769 100.9 65.6676 100.971 64.627C101.195 62.4885 101.736 60.4187 102.184 58.4289C102.714 56.4391 103.479 54.5866 104.08 52.6654C105.222 49.0518 107.354 45.5067 110.169 42.8423C110.498 44.3174 110.192 45.7126 109.957 47.1992Z" fill="#FFB800"/>
<path d="M190.392 15.8772C190.698 15.6599 191.158 15.2826 191.228 14.9166C191.299 14.402 190.545 14.402 190.239 14.402C188.944 14.2534 187.648 14.402 186.364 14.4707C186.176 14.4821 185.988 14.4935 185.799 14.4935C185.787 15.1911 185.776 15.9687 185.764 16.8264C186.247 16.7806 186.73 16.7349 187.201 16.6777C188.26 16.6205 189.556 16.4719 190.392 15.8772Z" fill="#FFB800"/>
<path d="M136.172 32.2872C135.571 32.1386 134.947 32.1386 134.499 31.9899C133.887 31.9899 133.275 31.9899 132.662 31.9899C132.05 31.8412 131.437 31.8412 130.978 31.8412C130.378 31.8412 129.918 31.8412 129.447 31.8412C129.153 31.8412 128.847 31.8412 128.529 31.8412C127.61 31.8412 126.998 32.1386 126.538 32.4359C126.232 32.8819 126.079 33.4765 126.079 34.3685C126.232 34.8145 126.538 35.2605 126.998 35.4091C127.304 35.5578 127.61 35.5578 127.61 35.5578C127.763 35.7065 127.904 35.7065 128.069 35.7065C128.222 35.7065 128.529 35.7065 128.67 35.8551C128.976 35.8551 129.435 35.8551 129.895 35.8551C130.813 36.0038 131.885 36.0038 132.957 36.0038C133.416 36.0038 133.875 36.0038 134.323 36.0038C134.794 36.0038 135.394 36.0038 135.701 36.0038C136.16 36.0038 136.619 35.8551 136.925 35.8551C137.232 35.8551 137.538 35.7065 137.691 35.7065C138.456 35.4091 138.763 34.9632 138.916 34.6658C139.069 34.2198 138.916 33.9225 138.916 33.9225C138.916 33.3279 138.303 32.8819 137.538 32.5846C137.09 32.4359 136.631 32.2872 136.172 32.2872Z" fill="#FFB800"/>
<path d="M-2.58155 89.907C-2.58155 90.2363 -2.51655 90.4703 -2.38655 90.609C-2.24788 90.739 -2.06588 90.804 -1.84055 90.804C-1.61522 90.804 -1.43755 90.739 -1.30755 90.609C-1.16888 90.4703 -1.09955 90.2363 -1.09955 89.907V84.993C-1.09955 84.6637 -1.16888 84.434 -1.30755 84.304C-1.43755 84.1653 -1.61522 84.096 -1.84055 84.096C-2.06588 84.096 -2.24788 84.1653 -2.38655 84.304C-2.51655 84.434 -2.58155 84.6637 -2.58155 84.993V89.907ZM-4.01155 85.084C-4.01155 84.3473 -3.82522 83.784 -3.45255 83.394C-3.07988 82.9953 -2.54255 82.796 -1.84055 82.796C-1.13855 82.796 -0.601217 82.9953 -0.22855 83.394C0.144116 83.784 0.330449 84.3473 0.330449 85.084V89.816C0.330449 90.5527 0.144116 91.1203 -0.22855 91.519C-0.601217 91.909 -1.13855 92.104 -1.84055 92.104C-2.54255 92.104 -3.07988 91.909 -3.45255 91.519C-3.82522 91.1203 -4.01155 90.5527 -4.01155 89.816V85.084ZM3.36575 82.9C4.08508 82.9 4.61808 83.0907 4.96475 83.472C5.32008 83.8533 5.49775 84.4123 5.49775 85.149V86.332C5.49775 87.0687 5.32008 87.6277 4.96475 88.009C4.61808 88.3903 4.08508 88.581 3.36575 88.581H2.68975V92H1.25975V82.9H3.36575ZM2.68975 84.2V87.281H3.36575C3.59108 87.281 3.76441 87.2203 3.88575 87.099C4.00708 86.9777 4.06775 86.7523 4.06775 86.423V85.058C4.06775 84.7287 4.00708 84.5033 3.88575 84.382C3.76441 84.2607 3.59108 84.2 3.36575 84.2H2.68975ZM6.17314 92V82.9H9.94314V84.2H7.60314V92H6.17314ZM15.5362 92H14.0932L13.8462 90.349H12.0912L11.8442 92H10.5312L11.9872 82.9H14.0802L15.5362 92ZM12.2732 89.114H13.6512L12.9622 84.512L12.2732 89.114ZM17.6321 92H16.2021V82.9H17.6321V86.8H19.2571V82.9H20.7131V92H19.2571V88.1H17.6321V92ZM23.219 92H21.75V82.9H23.024V88.659L23.544 86.657L24.714 82.9H26.287V92H25V85.591L24.415 87.827L23.219 92ZM30.0538 85.136C30.0538 84.7287 29.9845 84.4557 29.8458 84.317C29.7158 84.1697 29.5382 84.096 29.3128 84.096C29.0875 84.096 28.9055 84.1653 28.7668 84.304C28.6282 84.434 28.5588 84.6637 28.5588 84.993V85.734H27.2458V85.058C27.2458 84.3213 27.4192 83.7623 27.7658 83.381C28.1212 82.991 28.6498 82.796 29.3518 82.796C30.0538 82.796 30.5825 82.9953 30.9378 83.394C31.3018 83.784 31.4838 84.3473 31.4838 85.084V85.318C31.4838 86.2887 31.1502 86.9127 30.4828 87.19C30.8468 87.346 31.1025 87.5887 31.2498 87.918C31.4058 88.2387 31.4838 88.633 31.4838 89.101V89.816C31.4838 90.5527 31.3018 91.1203 30.9378 91.519C30.5825 91.909 30.0538 92.104 29.3518 92.104C28.6498 92.104 28.1168 91.909 27.7528 91.519C27.3975 91.1203 27.2198 90.5527 27.2198 89.816V88.815H28.5718V89.907C28.5718 90.2363 28.6368 90.4703 28.7668 90.609C28.9055 90.739 29.0875 90.804 29.3128 90.804C29.5382 90.804 29.7158 90.7347 29.8458 90.596C29.9845 90.4573 30.0538 90.1843 30.0538 89.777V89.062C30.0538 88.6373 29.9802 88.3383 29.8328 88.165C29.6855 87.9917 29.4472 87.905 29.1178 87.905H28.7668V86.605H29.1958C29.4645 86.605 29.6725 86.5357 29.8198 86.397C29.9758 86.2583 30.0538 86.007 30.0538 85.643V85.136ZM37.0801 92H35.6371L35.3901 90.349H33.6351L33.3881 92H32.0751L33.5311 82.9H35.6241L37.0801 92ZM33.8171 89.114H35.1951L34.5061 84.512L33.8171 89.114ZM37.7461 82.9H39.1761V90.7H40.8011V82.9H42.2571V90.726H42.8811V93.222H41.4901V92H37.7461V82.9ZM45.1311 92H43.6621V82.9H44.9361V88.659L45.4561 86.657L46.6261 82.9H48.1991V92H46.9121V85.591L46.3271 87.827L45.1311 92ZM48.9499 92C49.0193 91.8267 49.0626 91.6577 49.0799 91.493C49.0973 91.3197 49.1059 91.1203 49.1059 90.895V89.491C49.1059 89.0143 49.1709 88.6113 49.3009 88.282C49.4396 87.944 49.6909 87.7013 50.0549 87.554C49.4309 87.2593 49.1189 86.644 49.1189 85.708V84.993C49.1189 84.291 49.2836 83.7667 49.6129 83.42C49.9509 83.0733 50.4926 82.9 51.2379 82.9H53.3959V92H51.9659V88.295H51.4719C51.1426 88.295 50.9043 88.3817 50.7569 88.555C50.6096 88.7283 50.5359 89.0273 50.5359 89.452V90.882C50.5359 91.064 50.5316 91.2157 50.5229 91.337C50.5229 91.4583 50.5143 91.558 50.4969 91.636C50.4883 91.714 50.4753 91.779 50.4579 91.831C50.4406 91.883 50.4233 91.9393 50.4059 92H48.9499ZM51.2769 84.2C51.0256 84.2 50.8393 84.2737 50.7179 84.421C50.6053 84.5683 50.5489 84.8067 50.5489 85.136V86.033C50.5489 86.397 50.6226 86.6483 50.7699 86.787C50.9259 86.9257 51.1383 86.995 51.4069 86.995H51.9659V84.2H51.2769ZM60.593 93.222V92H57.538V93.222H56.147V90.726H56.706C56.8273 90.57 56.9096 90.401 56.953 90.219C57.005 90.037 57.0396 89.8117 57.057 89.543L57.382 82.9H61.386V90.726H62.01V93.222H60.593ZM58.461 89.517C58.4436 89.8637 58.4003 90.1237 58.331 90.297C58.2703 90.4703 58.1793 90.6133 58.058 90.726H59.93V84.2H58.721L58.461 89.517ZM64.2366 86.735H66.1996V88.035H64.2366V90.7H66.7066V92H62.8066V82.9H66.7066V84.2H64.2366V86.735ZM67.1768 82.9H71.5968V84.2H70.1018V92H68.6718V84.2H67.1768V82.9ZM76.3735 88.607V89.816C76.3735 90.5527 76.1915 91.1203 75.8275 91.519C75.4722 91.909 74.9435 92.104 74.2415 92.104C73.5395 92.104 73.0065 91.909 72.6425 91.519C72.2872 91.1203 72.1095 90.5527 72.1095 89.816V85.084C72.1095 84.3473 72.2872 83.784 72.6425 83.394C73.0065 82.9953 73.5395 82.796 74.2415 82.796C74.9435 82.796 75.4722 82.9953 75.8275 83.394C76.1915 83.784 76.3735 84.3473 76.3735 85.084V85.968H75.0215V84.993C75.0215 84.6637 74.9522 84.434 74.8135 84.304C74.6835 84.1653 74.5059 84.096 74.2805 84.096C74.0552 84.096 73.8732 84.1653 73.7345 84.304C73.6045 84.434 73.5395 84.6637 73.5395 84.993V89.907C73.5395 90.2363 73.6045 90.466 73.7345 90.596C73.8732 90.726 74.0552 90.791 74.2805 90.791C74.5059 90.791 74.6835 90.726 74.8135 90.596C74.9522 90.466 75.0215 90.2363 75.0215 89.907V88.607H76.3735ZM79.1132 88.373L78.6712 89.205V92H77.2412V82.9H78.6712V86.865L80.5432 82.9H81.9732L79.9842 86.956L81.9732 92H80.5042L79.1132 88.373ZM84.093 92H82.624V82.9H83.898V88.659L84.418 86.657L85.588 82.9H87.161V92H85.874V85.591L85.289 87.827L84.093 92ZM92.9429 82.9L91.4479 87.32L93.0469 92H91.5389L90.3689 88.399L89.1859 92H87.8469L89.4459 87.32L87.9509 82.9H89.4329L90.5119 86.254L91.6169 82.9H92.9429ZM97.2063 92H95.7763V82.9H100.287V92H98.8313V84.2H97.2063V92ZM103.43 82.9C104.15 82.9 104.683 83.0907 105.029 83.472C105.385 83.8533 105.562 84.4123 105.562 85.149V86.332C105.562 87.0687 105.385 87.6277 105.029 88.009C104.683 88.3903 104.15 88.581 103.43 88.581H102.754V92H101.324V82.9H103.43ZM102.754 84.2V87.281H103.43C103.656 87.281 103.829 87.2203 103.95 87.099C104.072 86.9777 104.132 86.7523 104.132 86.423V85.058C104.132 84.7287 104.072 84.5033 103.95 84.382C103.829 84.2607 103.656 84.2 103.43 84.2H102.754ZM110.853 92H109.41L109.163 90.349H107.408L107.161 92H105.848L107.304 82.9H109.397L110.853 92ZM107.59 89.114H108.968L108.279 84.512L107.59 89.114ZM114.275 85.136C114.275 84.7287 114.205 84.4557 114.067 84.317C113.937 84.1697 113.759 84.096 113.534 84.096C113.308 84.096 113.126 84.1653 112.988 84.304C112.849 84.434 112.78 84.6637 112.78 84.993V85.734H111.467V85.058C111.467 84.3213 111.64 83.7623 111.987 83.381C112.342 82.991 112.871 82.796 113.573 82.796C114.275 82.796 114.803 82.9953 115.159 83.394C115.523 83.784 115.705 84.3473 115.705 85.084V85.318C115.705 86.2887 115.371 86.9127 114.704 87.19C115.068 87.346 115.323 87.5887 115.471 87.918C115.627 88.2387 115.705 88.633 115.705 89.101V89.816C115.705 90.5527 115.523 91.1203 115.159 91.519C114.803 91.909 114.275 92.104 113.573 92.104C112.871 92.104 112.338 91.909 111.974 91.519C111.618 91.1203 111.441 90.5527 111.441 89.816V88.815H112.793V89.907C112.793 90.2363 112.858 90.4703 112.988 90.609C113.126 90.739 113.308 90.804 113.534 90.804C113.759 90.804 113.937 90.7347 114.067 90.596C114.205 90.4573 114.275 90.1843 114.275 89.777V89.062C114.275 88.6373 114.201 88.3383 114.054 88.165C113.906 87.9917 113.668 87.905 113.339 87.905H112.988V86.605H113.417C113.685 86.605 113.893 86.5357 114.041 86.397C114.197 86.2583 114.275 86.007 114.275 85.643V85.136ZM120.807 93.222V92H117.752V93.222H116.361V90.726H116.92C117.041 90.57 117.123 90.401 117.167 90.219C117.219 90.037 117.253 89.8117 117.271 89.543L117.596 82.9H121.6V90.726H122.224V93.222H120.807ZM118.675 89.517C118.657 89.8637 118.614 90.1237 118.545 90.297C118.484 90.4703 118.393 90.6133 118.272 90.726H120.144V84.2H118.935L118.675 89.517ZM124.45 92H123.02V82.9H124.45V86.8H126.075V82.9H127.531V92H126.075V88.1H124.45V92ZM130.037 92H128.568V82.9H129.842V88.659L130.362 86.657L131.532 82.9H133.105V92H131.818V85.591L131.233 87.827L130.037 92ZM135.988 88.373L135.546 89.205V92H134.116V82.9H135.546V86.865L137.418 82.9H138.848L136.859 86.956L138.848 92H137.379L135.988 88.373ZM140.812 89.907C140.812 90.2363 140.877 90.4703 141.007 90.609C141.146 90.739 141.328 90.804 141.553 90.804C141.778 90.804 141.956 90.739 142.086 90.609C142.225 90.4703 142.294 90.2363 142.294 89.907V84.993C142.294 84.6637 142.225 84.434 142.086 84.304C141.956 84.1653 141.778 84.096 141.553 84.096C141.328 84.096 141.146 84.1653 141.007 84.304C140.877 84.434 140.812 84.6637 140.812 84.993V89.907ZM139.382 85.084C139.382 84.3473 139.568 83.784 139.941 83.394C140.314 82.9953 140.851 82.796 141.553 82.796C142.255 82.796 142.792 82.9953 143.165 83.394C143.538 83.784 143.724 84.3473 143.724 85.084V89.816C143.724 90.5527 143.538 91.1203 143.165 91.519C142.792 91.909 142.255 92.104 141.553 92.104C140.851 92.104 140.314 91.909 139.941 91.519C139.568 91.1203 139.382 90.5527 139.382 89.816V85.084ZM146.811 82.9C147.557 82.9 148.094 83.0733 148.423 83.42C148.761 83.7667 148.93 84.291 148.93 84.993V85.318C148.93 85.786 148.857 86.1717 148.709 86.475C148.562 86.7783 148.328 87.0037 148.007 87.151C148.397 87.2983 148.67 87.541 148.826 87.879C148.991 88.2083 149.073 88.6157 149.073 89.101V89.842C149.073 90.544 148.891 91.0813 148.527 91.454C148.163 91.818 147.622 92 146.902 92H144.653V82.9H146.811ZM146.083 87.905V90.7H146.902C147.145 90.7 147.327 90.635 147.448 90.505C147.578 90.375 147.643 90.141 147.643 89.803V89.01C147.643 88.5853 147.57 88.295 147.422 88.139C147.284 87.983 147.05 87.905 146.72 87.905H146.083ZM146.083 84.2V86.605H146.642C146.911 86.605 147.119 86.5357 147.266 86.397C147.422 86.2583 147.5 86.007 147.5 85.643V85.136C147.5 84.8067 147.44 84.5683 147.318 84.421C147.206 84.2737 147.024 84.2 146.772 84.2H146.083Z" fill="white"/>
</svg>
