<svg width="47" height="46" viewBox="0 0 47 46" fill="none" xmlns="http://www.w3.org/2000/svg">
<g clip-path="url(#clip0)">
<path d="M46.01 23.0002C46.01 35.7202 35.7 46.0102 23 46.0102C10.29 46.0102 0 35.7102 0 23.0002C0 10.2902 10.29 -0.00976562 23 -0.00976562C35.7 -0.00976562 46.01 10.2902 46.01 23.0002Z" fill="url(#paint0_radial)"/>
<path fill-rule="evenodd" clip-rule="evenodd" d="M36.64 19.7099C35.12 13.3399 29.62 8.9999 23 8.8999C22.13 8.9399 21.18 9.0099 20.32 9.1799C11.03 11.0299 6.25 21.2999 10.74 29.5599C10.9 29.7999 10.9 29.9999 10.87 30.2599C10.22 32.3899 9.62 34.5899 9.04 36.7599C8.94 37.1399 8.94 37.1399 9.3 37.0399C11.57 36.4199 13.81 35.8499 16.08 35.2799C16.28 35.2299 16.42 35.2299 16.58 35.3099C19.49 36.7899 22.55 37.1999 25.77 36.6099C33.44 35.1099 38.47 27.2999 36.64 19.7099ZM24.96 34.3499C24.29 34.4799 23.66 34.5299 23.35 34.4899C20.88 34.4899 18.89 33.9399 17.04 32.8699C16.78 32.7099 16.58 32.6699 16.33 32.7499C15.06 33.0599 13.83 33.3999 12.58 33.7299C12.32 33.7999 12.3 33.7599 12.35 33.4899C12.68 32.3399 12.99 31.1599 13.36 29.9599C13.44 29.6399 13.42 29.3899 13.22 29.1199C10.68 24.9999 10.8 19.9099 13.63 16.0899C16.58 12.1499 20.64 10.4999 25.46 11.5299C30.22 12.5299 33.26 15.6299 34.34 20.3499C35.88 26.8499 31.5 33.2899 24.96 34.3499Z" fill="#622199"/>
<path fill-rule="evenodd" clip-rule="evenodd" d="M26.66 29.56C26.17 29.6 25.68 29.52 25.21 29.37C22.01 28.44 19.59 26.48 17.64 23.81C16.92 22.82 16.22 21.76 16.02 20.52C15.73 19.07 16.18 17.78 17.28 16.78C17.64 16.44 18.71 16.28 19.15 16.5C19.29 16.62 19.37 16.74 19.46 16.88C19.86 17.88 20.28 18.8 20.68 19.74C20.74 19.93 20.73 20.14 20.62 20.33C20.41 20.77 20.08 21.12 19.76 21.49C19.49 21.72 19.49 21.98 19.67 22.26C20.82 24.17 22.37 25.54 24.45 26.36C24.75 26.49 24.98 26.43 25.17 26.2C25.53 25.78 25.88 25.33 26.22 24.89C26.42 24.61 26.7 24.57 27 24.7C27.69 25.01 28.36 25.33 29.02 25.63C29.2 25.73 29.33 25.79 29.49 25.85C30.18 26.2 30.18 26.25 30.1 26.99C30.01 28.46 28.89 29.2 27.61 29.55C27.24 29.6 26.96 29.6 26.66 29.56Z" fill="#622199"/>
</g>
<defs>
<radialGradient id="paint0_radial" cx="0" cy="0" r="1" gradientUnits="userSpaceOnUse" gradientTransform="translate(23.0037 22.9988) scale(23.0078)">
<stop stop-color="white"/>
<stop offset="1" stop-color="white"/>
</radialGradient>
<clipPath id="clip0">
<rect width="46.01" height="46" fill="white"/>
</clipPath>
</defs>
</svg>
